<?xml version="1.0" encoding="utf-8"?>
<!-- Generator: Adobe Illustrator 19.0.0, SVG Export Plug-In . SVG Version: 6.00 Build 0)  -->
<svg version="1.1" id="new_doggie" xmlns="http://www.w3.org/2000/svg" xmlns:xlink="http://www.w3.org/1999/xlink" x="0px" y="0px"
	 viewBox="252.2 171.2 823.5 413.1" style="enable-background:new 252.2 171.2 823.5 413.1;" xml:space="preserve">
<style type="text/css">
	.st0{fill:#FFFFFF;}
	.st1{fill:none;stroke:#FFFFFF;stroke-width:1.5649;stroke-linecap:round;stroke-linejoin:round;stroke-miterlimit:10;}
	.st2{fill:#FFFFFF;stroke:#FFFFFF;stroke-width:1.5649;stroke-linecap:round;stroke-linejoin:round;stroke-miterlimit:10;}
	.st3{fill:none;stroke:#FFFFFF;stroke-width:1.5649;stroke-linecap:round;stroke-linejoin:round;}
	.st4{fill:#FFFFFF;stroke:#FFFFFF;stroke-width:1.5649;stroke-linejoin:round;stroke-miterlimit:10;}
</style>
<path class="st0" d="M561.6,171.2C-99.9,329,428.3,771.1,945,496.2C492.4,732-82.7,375.8,561.6,171.2z"/>
<path class="st0" d="M397,250.8c406.1-191.2,897.5,110,514.1,290.3C1360.7,368.9,789.5,42.9,397,250.8z"/>
<g>
	<g>
		<path class="st0" d="M373.5,420.4c2.5,1,3.7,1.5,6.2,2.5c0.5,12.6,1.2,25.2,2.2,37.8c9.3-8.7,18.4-17.6,27.3-26.6
			c0.4,0.2,0.7,0.2,1.1,0.4c1.3,12.7,2.8,25.3,4.6,37.9c8.7-9.2,17.3-18.5,25.7-28c2.6,0.8,3.9,1.2,6.4,1.9
			c-11.6,13.1-23.4,26-35.6,38.6c-0.5-0.2-0.7-0.2-1.2-0.4c-1.9-12.5-3.5-25-4.9-37.5c-9,8.9-18.1,17.6-27.4,26.1
			c-0.5-0.2-0.7-0.3-1.2-0.5C375.3,455.3,374.2,437.9,373.5,420.4z"/>
		<path class="st0" d="M461.7,430.3c1.4,0.4,2.4,1.2,3.1,2.4c0.7,1.2,0.9,2.5,0.5,3.8s-1.2,2.3-2.4,3c-1.2,0.7-2.6,0.8-4,0.4
			s-2.4-1.2-3.1-2.4c-0.7-1.2-0.9-2.5-0.5-3.8s1.2-2.3,2.5-3C459,430.1,460.3,429.9,461.7,430.3z M453.3,448.2
			c2.5,0.7,3.7,1.1,6.2,1.7c-4.2,15.2-8.4,30.5-12.6,45.7c-2.6-0.7-4-1.1-6.6-1.9C444.6,478.6,449,463.4,453.3,448.2z"/>
		<path class="st0" d="M507.4,493.7c2,1.5,3,2.2,5,3.7c-2.4,2.9-5.1,5.1-7.9,6.6s-5.8,2.5-9.1,2.9c-3.2,0.4-6.8,0.2-10.6-0.7
			c-8.5-1.9-14.5-6-18-12.1s-4.4-12.2-2.7-18.4c1.5-5.8,4.8-10.5,9.8-14.1c6.3-4.6,13.4-5.9,21.4-4.1c8.3,1.8,14.3,6.2,18.2,13.2
			c2.8,4.9,3.6,10.6,2.5,17c-15.2-3-30.3-6.2-45.3-9.9c-1.2,5.4-0.4,10.2,2.4,14.5s7,7.1,12.5,8.3c2.6,0.6,5.3,0.7,7.9,0.4
			c2.7-0.3,5-0.9,7-2C502.5,498.2,504.8,496.4,507.4,493.7z M509.8,481.2c-0.2-3.4-1-6.2-2.2-8.4s-3.1-4.2-5.5-5.9s-5.1-2.9-8-3.6
			c-4.8-1.1-9.3-0.6-13.4,1.5c-3,1.5-5.7,4.2-8.1,8.1C484.9,476,497.3,478.8,509.8,481.2z"/>
		<path class="st0" d="M529.8,465.7c2.6,0.4,3.9,0.7,6.5,1.1c-0.4,2.7-0.7,4.1-1.1,6.8c2.4-2.4,4.7-4.1,7.1-5.1c2.3-1,4.7-1.3,7-1
			c1.7,0.3,3.5,1.1,5.4,2.4c-1.6,1.9-2.4,2.8-4,4.6c-1.3-0.7-2.3-1.2-3.3-1.3c-2.1-0.3-4.3,0.2-6.5,1.5s-4.2,3.7-5.8,7
			c-1.2,2.5-2.5,7.9-3.8,16c-1,6.3-1.6,9.5-2.6,15.8c-2.8-0.4-4.1-0.7-6.9-1.2C524.4,496.8,527.1,481.2,529.8,465.7z"/>
		<path class="st0" d="M560,470.2c2.5,0.3,3.8,0.5,6.3,0.8c-0.4,3.4-0.6,5.1-1,8.4c3-2.9,6.1-5,9.3-6.3c3.3-1.3,6.7-1.7,10.3-1.4
			c3.7,0.4,6.9,1.5,9.6,3.6c2.7,2,4.7,4.6,5.8,7.7c1.1,3.1,1.5,7.9,1.1,14.4c-0.7,9.7-1,14.6-1.7,24.3c-2.7-0.2-4.1-0.3-6.8-0.5
			c0.7-9,1.1-13.5,1.8-22.5c0.4-5.4,0.4-9.1,0.1-11c-0.5-3.1-1.7-5.7-3.7-7.4c-2-1.8-4.6-2.8-8-3.1c-3.9-0.4-7.5,0.5-10.8,2.6
			s-5.8,4.8-7.2,8.3c-0.9,2.2-1.7,6.5-2.5,12.7c-0.8,6.9-1.3,10.4-2.1,17.3c-2.7-0.3-4.1-0.5-6.8-0.8C556,501.6,558,485.9,560,470.2
			z"/>
		<path class="st0" d="M611.5,475.1c2.7,0.2,4,0.2,6.7,0.4c5.1,12.5,10.5,24.9,16.1,37.1c6.1-12,11.9-24,17.5-36.2
			c2.7,0,4.1,0,6.8,0c-10,21.8-20.6,43.1-31.9,64.2c-2.9-0.1-4.4-0.2-7.3-0.3c4.5-8.2,6.7-12.3,11-20.5
			C623.8,505.1,617.5,490.1,611.5,475.1z"/>
		<path class="st0" d="M667,476.3c2.6,0,3.8-0.1,6.4-0.1c0.1,3.5,0.1,5.2,0.2,8.7c2.5-3.4,5.3-5.9,8.5-7.7c3.2-1.8,6.8-2.8,10.9-3
			c7-0.4,13.2,1.6,18.6,6.1c5.4,4.5,8.5,10,9.1,16.8c0.6,6.9-1.4,13.1-6.3,18.3c-4.9,5.3-11.1,8.1-18.6,8.5
			c-4.2,0.2-8.1-0.4-11.7-1.8c-3.6-1.4-6.8-3.7-9.7-6.7c0.3,10.2,0.4,15.3,0.6,25.5c-2.8,0.1-4.2,0.1-6.9,0.1
			C667.7,519.4,667.4,497.8,667,476.3z M692.8,480c-5.6,0.3-10.1,2.3-13.9,6.1c-3.7,3.8-5.5,8.4-5.4,13.9c0.1,3.6,1,6.8,2.9,9.6
			c1.8,2.8,4.4,5,7.8,6.6c3.4,1.6,6.9,2.2,10.6,2c3.6-0.2,7-1.2,10.1-3.1c3.1-1.9,5.4-4.4,7.1-7.6c1.6-3.2,2.3-6.4,2.1-9.8
			c-0.3-3.4-1.4-6.5-3.5-9.3c-2-2.9-4.6-5-7.8-6.5C699.7,480.5,696.4,479.9,692.8,480z"/>
		<path class="st0" d="M730.7,452.8c1.4-0.2,2.7,0.2,3.8,1.1s1.7,2,1.9,3.4s-0.2,2.6-1.1,3.7c-0.9,1.1-2.1,1.7-3.5,1.9
			c-1.4,0.1-2.7-0.2-3.8-1.1s-1.7-2-1.9-3.4c-0.1-1.4,0.2-2.6,1.1-3.7C728.2,453.6,729.3,452.9,730.7,452.8z M729.6,472.5
			c2.5-0.3,3.8-0.4,6.4-0.7c1.7,15.7,3.5,31.4,5.2,47.1c-2.7,0.3-4.1,0.4-6.8,0.7C732.8,504,731.2,488.2,729.6,472.5z"/>
		<path class="st0" d="M796.4,494.8c2.4,0.6,3.6,1,6.1,1.6c-1.2,3.6-2.8,6.6-4.8,9.1s-4.5,4.5-7.4,6.1c-2.9,1.6-6.2,2.7-10.1,3.3
			c-8.5,1.4-15.6-0.2-21.1-4.5c-5.5-4.4-8.5-9.8-9.3-16.1c-0.8-6,0.6-11.5,3.8-16.7c4.1-6.6,10.2-10.5,18.3-11.8
			c8.4-1.4,15.5,0.4,21.7,5.5c4.4,3.6,7.3,8.5,8.6,14.8c-15.2,2.9-30.4,5.4-45.7,7.6c0.9,5.4,3.4,9.7,7.6,12.6s9.1,4,14.6,3.1
			c2.6-0.4,5.2-1.3,7.5-2.5c2.4-1.3,4.3-2.7,5.8-4.4C793.5,500.8,795,498.2,796.4,494.8z M794.1,482.3c-1.5-3-3.2-5.4-5.2-7
			s-4.4-2.8-7.3-3.5c-2.9-0.7-5.8-0.8-8.7-0.3c-4.9,0.8-8.8,2.9-11.9,6.4c-2.3,2.5-3.8,6-4.5,10.5
			C769.1,486.6,781.6,484.6,794.1,482.3z"/>
		<path class="st0" d="M834.9,459.3c-1.2,2-1.8,3-3.1,4.9c-4.1-2.2-7.8-3-11-2.3c-2,0.5-3.7,1.5-4.8,3.1c-1.2,1.6-1.6,3.3-1.2,5
			c0.3,1.5,1.3,2.8,2.8,3.9s4.5,2.2,8.8,3.1c5.3,1.2,9.2,2.6,11.4,4.2c2.2,1.7,3.7,3.9,4.4,6.6c0.9,3.8,0.3,7.3-2,10.7
			s-5.8,5.6-10.2,6.6c-3,0.7-6,0.7-9,0.2c-3-0.6-5.6-1.7-7.8-3.4c1.3-2.1,2-3.1,3.3-5.1c4.1,2.7,8.1,3.6,11.9,2.8
			c2.7-0.6,4.7-1.9,6.2-3.9s2-4,1.5-6c-0.4-1.7-1.4-3.1-2.9-4.1s-4.7-2-9.3-3c-5-1.1-8.6-2.6-10.7-4.3c-2.1-1.8-3.4-4-4-6.7
			c-0.7-3.5-0.1-6.7,2-9.6c2-2.9,5-4.7,8.8-5.6C824.4,455.3,829.3,456.3,834.9,459.3z"/>
		<path class="st0" d="M861.7,485.9c1.6-0.4,3.1-0.3,4.5,0.4s2.3,1.8,2.7,3.2s0.2,2.8-0.6,4.1s-2.1,2.2-3.7,2.7
			c-1.6,0.4-3.1,0.3-4.5-0.4s-2.3-1.8-2.7-3.2c-0.4-1.5-0.2-2.8,0.7-4.2C858.9,487.2,860.1,486.4,861.7,485.9z"/>
		<path class="st0" d="M869.9,444.1c2.5-0.8,3.7-1.1,6.2-1.9c1,3.3,1.6,5,2.6,8.3c1.5-3.9,3.5-7.2,6.2-9.8c2.6-2.6,5.9-4.6,9.7-5.9
			c6.7-2.3,13.3-2.1,19.8,0.6s11.1,7.2,13.5,13.6c2.5,6.5,2.2,13-1.1,19.4s-8.6,10.9-15.7,13.4c-4,1.4-8,1.9-11.9,1.5
			s-7.7-1.6-11.3-3.7c3.1,9.7,4.6,14.6,7.7,24.3c-2.7,0.8-4,1.3-6.7,2.1C882.5,485.4,876.2,464.8,869.9,444.1z M896,440.5
			c-5.3,1.8-9.2,5.1-11.8,9.8c-2.6,4.7-3.1,9.7-1.4,14.9c1.1,3.4,2.9,6.3,5.5,8.4c2.6,2.2,5.7,3.6,9.4,4.1s7.4,0.2,10.9-1
			s6.5-3.2,8.9-5.9c2.5-2.7,4.1-5.8,4.8-9.3s0.5-6.8-0.7-10c-1.2-3.1-3.2-5.8-6-8s-5.9-3.5-9.4-4.1C902.9,439,899.4,439.3,896,440.5
			z"/>
		<path class="st0" d="M923,405.9c2.4-1,3.5-1.4,5.9-2.4c8.4,20.2,16.8,40.5,25.1,60.7c-2.6,1.1-3.8,1.6-6.4,2.6
			C939.4,446.5,931.2,426.2,923,405.9z"/>
	</g>
</g>
<path class="st1" d="M492.7,364.5c2.6,31.6,55.3,52.8,98.6,46.9"/>
<path class="st2" d="M550.3,426.7c-12.6-2.9-26.8-8.1-40.2-15.4c0,0,9.1-2.7,13.3-2.4c4.1,0.3,3.5,4.6,6.1,3.1
	C540.4,406.1,550.5,426.1,550.3,426.7z"/>
<path class="st1" d="M608.7,424.3c-3.5,0.9-19.2,3.8-37.3,4.9c-6.1,0.2-13.4-0.7-21.2-2.5"/>
<path class="st1" d="M596,399.5c-2.4,1.4-5.4,6.1-4.7,11.9c0.7,5.8,10.2,8.6,15.7,11.3l0,0"/>
<path class="st2" d="M525.1,334c-2.3,2.2-6.9,0.1-9.4,2.9c-2.5,2.7-7.5,10.3-8.9,11.1c-1.4,0.8-4.3,4.6-6.9,4
	c-2.6-0.5-10.7-0.3-13.2,1.3c-2.5,1.6-4,8.2-5.2,9.1c-12.9,7.3-20.7-1.9-21.5-2.9c-8.8-25.6-0.1-56.6,43.1-90.6
	c1-0.6,9,6.2,10.9,8.7c1.9,2.6,13.1,17.2,13.3,22.6c0.3,5.4-4.3,7.2-3.6,14c0.1,3.7,5.4,6.3,5.7,10C529.8,328,527.4,331.8,525.1,334
	z"/>
<path class="st1" d="M830.2,375.8c2.8-1.3,5.8-3.9,8.6-7.3c14.4-17.6,23.4-58.3-23.5-75.7c-2.1-0.9-6.8-11.8-10.9-16.9"/>
<path class="st1" d="M503.1,268.9c0.6-0.5,1.2-1,1.8-1.4c24.2-19.4,96.1-43.2,166.2-43.1"/>
<path class="st1" d="M460,359.5c7.5,21.8,27.7,39.7,50.1,51.8"/>
<path class="st1" d="M606.2,385.6c20.7-7.2,34.3-17.2,45.4-28"/>
<path class="st1" d="M660.1,351.1c0-0.8,0-1.6-0.1-2.5c-0.2-5.5-0.7-10.8-1.6-15.7"/>
<path class="st1" d="M594.1,279.4c-6.6,0.5-13.6,1.8-21.1,4"/>
<path class="st2" d="M658.4,332.9c-15.2,6.6-21,7.8-27,9.7c-6.5,1.9-9.4,3.2-14.4,1.6c-0.3-0.1-4.4,0.3-6.6-1.6
	c-6-4.6-1.5-3.4-6.3-7.5c-4.6-4.1-23.9-3.1-27.2-12.3c-3.9-9.9,10.1-16.2,10.3-22.7c0-1.8-3.4-2.6-3.1-6c0.3-2.5,0.8-10,3.8-11.4
	c3.7-1.8,5.3,0.1,6.2-3.2C629.6,276.9,652.3,298.6,658.4,332.9z"/>
<path class="st2" d="M804.5,275.9c-0.5,0.7-4.5-0.6-5.6-0.4s-19.9,7.1-27.1,10.1s-44.7-3.8-46-2.1c-1.3,1.7-12.7,0.8-19.5-4.9
	c-8.8-7.4-8.2-6.3-11-7.5c-2.3-1-10.2-2.9-16.1-12.1c-1.2-3.9-5.4-4.5-5.9-7.8c-0.4-2.4-4.2,1.8-2.8-13.1c0.2-2.3,1.9-8.6,0.6-13.7
	C723.5,224.4,774.8,237.7,804.5,275.9z"/>
<path class="st1" d="M601.2,400.2c-12.5,29.6,57.5,58.8,103,15.1"/>
<path class="st3" d="M742.9,299.3c23.7,0.7,44.1,10.3,58.9,19.6c7.1,4.7,11.6,10.3,15.6,16.6"/>
<path class="st3" d="M858.6,381.9c12.8,4.2,28.7,7.1,33.7,17.3c-24.1-5.4-67.5,28.2-111.1,12c-18.4-5.9-32.9-31.9-37.6-38.9
	c-4.7-7-16.9-8.1-16.9-8.1"/>
<path class="st3" d="M764.3,403.9c-11.5-3.4-54.7,25.7-75.5,23.1"/>
<g id="XMLID_2_">
	<g>
		<path class="st0" d="M756.1,408.2c13.7,9.1,11.9,24.7,11.2,29.4c-4.4-5.2-8.4-10.7-14.9-14.8l0,0
			C753,419.8,746.6,417.8,756.1,408.2z"/>
	</g>
	<g>
		<path class="st3" d="M728.1,416c11.2,0.5,18.7,3.1,24.3,6.8c6.5,4.1,10.5,9.6,14.9,14.8c0.7-4.7,2.5-20.2-11.2-29.4
			c-1.2-0.8-2.6-1.6-4.1-2.3"/>
		<path class="st3" d="M756.1,408.2L756.1,408.2c-9.6,9.5-3.1,11.6-3.7,14.5"/>
	</g>
</g>
<path class="st1" d="M662.3,377.4c17,15.9,39.7,6,47.7,4.1"/>
<path class="st0" d="M665.9,356.7c0.7,2.3,8.3-3.9,16.6-3.2c8.6-0.1,17.9,3.2,18.1,2.3c0.2-0.9-12.4-3.8-18-4.1
	C676.9,351.4,665.2,354.4,665.9,356.7z"/>
<path class="st2" d="M615.4,394.1c-1.4,2.3-13.4,11.4-15.5,11l0,0c-2.1-0.4-2.7-3.9-3.9-5.7c-1.8-1.4-6.4-14.2,10.2-13.8
	C618.3,385.6,616.8,391.8,615.4,394.1z"/>
<path class="st2" d="M735.3,316.3c-2.5,2.7,1.6,4.4-5.9,8.3s-7.6-0.4-12.8,2.4s-3.1,4.4-7,6.3c-4.9,1.6-22,0.8-30.7,5.1
	c-8.7,4.3-24.8,24.2-27.3,19.2c3-2.9,5.8-5.9,8.5-9c17.5-19.6,30.7-39.6,64.3-48.1c6.4-1.1,12.6-1.5,18.6-1.3
	C743.5,302.7,740.8,310.6,735.3,316.3z"/>
<path class="st4" d="M858.6,381.9c0,0-5.1,10.1-13,10.4s-5.8-2-8.9-2.1c-5.4-0.1-13.8,10.4-26,4.7c-3.8-2.1-7-7.2-10.8-8.4
	c-3.7-1.2-6,2.6-8.1-4.1c-2.1-6.6,5.8-13.3,5.6-16.2c-0.5-4.7-15-13.5,20-30.8c6.1,9.5,10.9,20.7,21.4,33c1.8,2,3.6,4.1,5.7,6.2
	C847.7,377.9,852.8,380,858.6,381.9z"/>
<path id="hair_1_" class="st0" d="M627.6,406.7c0,0-1.8-0.2-1.6,1.3c4.6,5,27.8,37.6,26.9,58.6C654,440,627.5,406.6,627.6,406.7z"/>
<path id="hair2_1_" class="st0" d="M640.8,415.8c0,0-1.8-0.1-1.5,1.4c4.9,4.6,20.1,22.4,27.6,39
	C658.4,433.8,640.6,415.8,640.8,415.8z"/>
<path id="hair3_1_" class="st0" d="M636.2,403.1c0,0-1.8,0.2-1.3,1.6c5.6,3.8,39.5,34.3,47,52.1C672,433.8,636,403.1,636.2,403.1z"
	/>
<path id="hair4_1_" class="st0" d="M644.3,401.2c0,0-1.7,0.5-1,1.9c21.3,10.2,32.8,17.3,49.6,36.5
	C677.2,417,644.1,401.2,644.3,401.2z"/>
</svg>
