<?xml version="1.0" encoding="utf-8"?>
<!-- Generator: Adobe Illustrator 19.0.0, SVG Export Plug-In . SVG Version: 6.00 Build 0)  -->
<svg version="1.1" id="new_doggie" xmlns="http://www.w3.org/2000/svg" xmlns:xlink="http://www.w3.org/1999/xlink" x="0px" y="0px"
	 viewBox="133.2 200.6 823.7 413.1" style="enable-background:new 133.2 200.6 823.7 413.1;" xml:space="preserve">
<style type="text/css">
	.st0{fill:none;stroke:#000000;stroke-width:1.5649;stroke-linecap:round;stroke-linejoin:round;stroke-miterlimit:10;}
	.st1{stroke:#000000;stroke-width:1.5649;stroke-linecap:round;stroke-linejoin:round;stroke-miterlimit:10;}
	.st2{fill:none;stroke:#000000;stroke-width:1.5649;stroke-linecap:round;stroke-linejoin:round;}
	.st3{stroke:#000000;stroke-width:1.5649;stroke-linejoin:round;stroke-miterlimit:10;}
</style>
<path d="M442.6,200.6c-661.5,157.8-133.3,599.9,383.4,325C373.4,761.4-201.7,405.2,442.6,200.6z"/>
<path d="M278,280.2c406.1-191.2,897.5,110,514.1,290.3C1241.7,398.3,670.5,72.3,278,280.2z"/>
<g>
	<g>
		<path d="M254.5,449.8c2.5,1,3.7,1.5,6.2,2.5c0.5,12.6,1.2,25.2,2.2,37.8c9.3-8.7,18.4-17.6,27.3-26.6c0.4,0.2,0.7,0.2,1.1,0.4
			c1.3,12.7,2.8,25.3,4.6,37.9c8.7-9.2,17.3-18.5,25.7-28c2.6,0.8,3.9,1.2,6.4,1.9c-11.6,13.1-23.4,26-35.6,38.6
			c-0.5-0.2-0.7-0.2-1.2-0.4c-1.9-12.5-3.5-25-4.9-37.5c-9,8.9-18.1,17.6-27.4,26.1c-0.5-0.2-0.7-0.3-1.2-0.5
			C256.3,484.7,255.2,467.3,254.5,449.8z"/>
		<path d="M342.7,459.7c1.4,0.4,2.4,1.2,3.1,2.4c0.7,1.2,0.9,2.5,0.5,3.8s-1.2,2.3-2.4,3c-1.2,0.7-2.6,0.8-4,0.4s-2.4-1.2-3.1-2.4
			c-0.7-1.2-0.9-2.5-0.5-3.8s1.2-2.3,2.5-3C340,459.5,341.3,459.3,342.7,459.7z M334.3,477.6c2.5,0.7,3.7,1.1,6.2,1.7
			c-4.2,15.2-8.4,30.5-12.6,45.7c-2.6-0.7-4-1.1-6.6-1.9C325.6,508,330,492.8,334.3,477.6z"/>
		<path d="M388.4,523.1c2,1.5,3,2.2,5,3.7c-2.4,2.9-5.1,5.1-7.9,6.6s-5.8,2.5-9.1,2.9c-3.2,0.4-6.8,0.2-10.6-0.7
			c-8.5-1.9-14.5-6-18-12.1s-4.4-12.2-2.7-18.4c1.5-5.8,4.8-10.5,9.8-14.1c6.3-4.6,13.4-5.9,21.4-4.1c8.3,1.8,14.3,6.2,18.2,13.2
			c2.8,4.9,3.6,10.6,2.5,17c-15.2-3-30.3-6.2-45.3-9.9c-1.2,5.4-0.4,10.2,2.4,14.5s7,7.1,12.5,8.3c2.6,0.6,5.3,0.7,7.9,0.4
			c2.7-0.3,5-0.9,7-2C383.5,527.6,385.8,525.8,388.4,523.1z M390.8,510.6c-0.2-3.4-1-6.2-2.2-8.4s-3.1-4.2-5.5-5.9s-5.1-2.9-8-3.6
			c-4.8-1.1-9.3-0.6-13.4,1.5c-3,1.5-5.7,4.2-8.1,8.1C365.9,505.4,378.3,508.2,390.8,510.6z"/>
		<path d="M410.8,495.1c2.6,0.4,3.9,0.7,6.5,1.1c-0.4,2.7-0.7,4.1-1.1,6.8c2.4-2.4,4.7-4.1,7.1-5.1c2.3-1,4.7-1.3,7-1
			c1.7,0.3,3.5,1.1,5.4,2.4c-1.6,1.9-2.4,2.8-4,4.6c-1.3-0.7-2.3-1.2-3.3-1.3c-2.1-0.3-4.3,0.2-6.5,1.5s-4.2,3.7-5.8,7
			c-1.2,2.5-2.5,7.9-3.8,16c-1,6.3-1.6,9.5-2.6,15.8c-2.8-0.4-4.1-0.7-6.9-1.2C405.4,526.2,408.1,510.6,410.8,495.1z"/>
		<path d="M441,499.6c2.5,0.3,3.8,0.5,6.3,0.8c-0.4,3.4-0.6,5.1-1,8.4c3-2.9,6.1-5,9.3-6.3c3.3-1.3,6.7-1.7,10.3-1.4
			c3.7,0.4,6.9,1.5,9.6,3.6c2.7,2,4.7,4.6,5.8,7.7s1.5,7.9,1.1,14.4c-0.7,9.7-1,14.6-1.7,24.3c-2.7-0.2-4.1-0.3-6.8-0.5
			c0.7-9,1.1-13.5,1.8-22.5c0.4-5.4,0.4-9.1,0.1-11c-0.5-3.1-1.7-5.7-3.7-7.4c-2-1.8-4.6-2.8-8-3.1c-3.9-0.4-7.5,0.5-10.8,2.6
			s-5.8,4.8-7.2,8.3c-0.9,2.2-1.7,6.5-2.5,12.7c-0.8,6.9-1.3,10.4-2.1,17.3c-2.7-0.3-4.1-0.5-6.8-0.8C437,531,439,515.3,441,499.6z"
			/>
		<path d="M492.5,504.5c2.7,0.2,4,0.2,6.7,0.4c5.1,12.5,10.5,24.9,16.1,37.1c6.1-12,11.9-24,17.5-36.2c2.7,0,4.1,0,6.8,0
			c-10,21.8-20.6,43.1-31.9,64.2c-2.9-0.1-4.4-0.2-7.3-0.3c4.5-8.2,6.7-12.3,11-20.5C504.8,534.5,498.5,519.5,492.5,504.5z"/>
		<path d="M548,505.7c2.6,0,3.8-0.1,6.4-0.1c0.1,3.5,0.1,5.2,0.2,8.7c2.5-3.4,5.3-5.9,8.5-7.7s6.8-2.8,10.9-3
			c7-0.4,13.2,1.6,18.6,6.1c5.4,4.5,8.5,10,9.1,16.8c0.6,6.9-1.4,13.1-6.3,18.3c-4.9,5.3-11.1,8.1-18.6,8.5
			c-4.2,0.2-8.1-0.4-11.7-1.8c-3.6-1.4-6.8-3.7-9.7-6.7c0.3,10.2,0.4,15.3,0.6,25.5c-2.8,0.1-4.2,0.1-6.9,0.1
			C548.7,548.8,548.4,527.2,548,505.7z M573.8,509.4c-5.6,0.3-10.1,2.3-13.9,6.1c-3.7,3.8-5.5,8.4-5.4,13.9c0.1,3.6,1,6.8,2.9,9.6
			c1.8,2.8,4.4,5,7.8,6.6c3.4,1.6,6.9,2.2,10.6,2c3.6-0.2,7-1.2,10.1-3.1c3.1-1.9,5.4-4.4,7.1-7.6c1.6-3.2,2.3-6.4,2.1-9.8
			c-0.3-3.4-1.4-6.5-3.5-9.3c-2-2.9-4.6-5-7.8-6.5C580.7,509.9,577.4,509.3,573.8,509.4z"/>
		<path d="M611.7,482.2c1.4-0.2,2.7,0.2,3.8,1.1c1.1,0.9,1.7,2,1.9,3.4s-0.2,2.6-1.1,3.7c-0.9,1.1-2.1,1.7-3.5,1.9
			c-1.4,0.1-2.7-0.2-3.8-1.1c-1.1-0.9-1.7-2-1.9-3.4c-0.1-1.4,0.2-2.6,1.1-3.7C609.2,483,610.3,482.3,611.7,482.2z M610.6,501.9
			c2.5-0.3,3.8-0.4,6.4-0.7c1.7,15.7,3.5,31.4,5.2,47.1c-2.7,0.3-4.1,0.4-6.8,0.7C613.8,533.4,612.2,517.6,610.6,501.9z"/>
		<path d="M677.4,524.2c2.4,0.6,3.6,1,6.1,1.6c-1.2,3.6-2.8,6.6-4.8,9.1s-4.5,4.5-7.4,6.1s-6.2,2.7-10.1,3.3
			c-8.5,1.4-15.6-0.2-21.1-4.5c-5.5-4.4-8.5-9.8-9.3-16.1c-0.8-6,0.6-11.5,3.8-16.7c4.1-6.6,10.2-10.5,18.3-11.8
			c8.4-1.4,15.5,0.4,21.7,5.5c4.4,3.6,7.3,8.5,8.6,14.8c-15.2,2.9-30.4,5.4-45.7,7.6c0.9,5.4,3.4,9.7,7.6,12.6s9.1,4,14.6,3.1
			c2.6-0.4,5.2-1.3,7.5-2.5c2.4-1.3,4.3-2.7,5.8-4.4C674.5,530.2,676,527.6,677.4,524.2z M675.1,511.7c-1.5-3-3.2-5.4-5.2-7
			s-4.4-2.8-7.3-3.5c-2.9-0.7-5.8-0.8-8.7-0.3c-4.9,0.8-8.8,2.9-11.9,6.4c-2.3,2.5-3.8,6-4.5,10.5C650.1,516,662.6,514,675.1,511.7z
			"/>
		<path d="M715.9,488.7c-1.2,2-1.8,3-3.1,4.9c-4.1-2.2-7.8-3-11-2.3c-2,0.5-3.7,1.5-4.8,3.1c-1.2,1.6-1.6,3.3-1.2,5
			c0.3,1.5,1.3,2.8,2.8,3.9c1.5,1.1,4.5,2.2,8.8,3.1c5.3,1.2,9.2,2.6,11.4,4.2c2.2,1.7,3.7,3.9,4.4,6.6c0.9,3.8,0.3,7.3-2,10.7
			s-5.8,5.6-10.2,6.6c-3,0.7-6,0.7-9,0.2c-3-0.6-5.6-1.7-7.8-3.4c1.3-2.1,2-3.1,3.3-5.1c4.1,2.7,8.1,3.6,11.9,2.8
			c2.7-0.6,4.7-1.9,6.2-3.9s2-4,1.5-6c-0.4-1.7-1.4-3.1-2.9-4.1s-4.7-2-9.3-3c-5-1.1-8.6-2.6-10.7-4.3c-2.1-1.8-3.4-4-4-6.7
			c-0.7-3.5-0.1-6.7,2-9.6c2-2.9,5-4.7,8.8-5.6C705.4,484.7,710.3,485.7,715.9,488.7z"/>
		<path d="M742.7,515.3c1.6-0.4,3.1-0.3,4.5,0.4s2.3,1.8,2.7,3.2s0.2,2.8-0.6,4.1s-2.1,2.2-3.7,2.7c-1.6,0.4-3.1,0.3-4.5-0.4
			s-2.3-1.8-2.7-3.2c-0.4-1.5-0.2-2.8,0.7-4.2C739.9,516.6,741.1,515.8,742.7,515.3z"/>
		<path d="M750.9,473.5c2.5-0.8,3.7-1.1,6.2-1.9c1,3.3,1.6,5,2.6,8.3c1.5-3.9,3.5-7.2,6.2-9.8c2.6-2.6,5.9-4.6,9.7-5.9
			c6.7-2.3,13.3-2.1,19.8,0.6s11.1,7.2,13.5,13.6c2.5,6.5,2.2,13-1.1,19.4c-3.3,6.4-8.6,10.9-15.7,13.4c-4,1.4-8,1.9-11.9,1.5
			s-7.7-1.6-11.3-3.7c3.1,9.7,4.6,14.6,7.7,24.3c-2.7,0.8-4,1.3-6.7,2.1C763.5,514.8,757.2,494.2,750.9,473.5z M777,469.9
			c-5.3,1.8-9.2,5.1-11.8,9.8c-2.6,4.7-3.1,9.7-1.4,14.9c1.1,3.4,2.9,6.3,5.5,8.4c2.6,2.2,5.7,3.6,9.4,4.1s7.4,0.2,10.9-1
			s6.5-3.2,8.9-5.9c2.5-2.7,4.1-5.8,4.8-9.3s0.5-6.8-0.7-10c-1.2-3.1-3.2-5.8-6-8s-5.9-3.5-9.4-4.1
			C783.9,468.4,780.4,468.7,777,469.9z"/>
		<path d="M804,435.3c2.4-1,3.5-1.4,5.9-2.4c8.4,20.2,16.8,40.5,25.1,60.7c-2.6,1.1-3.8,1.6-6.4,2.6
			C820.4,475.9,812.2,455.6,804,435.3z"/>
	</g>
</g>
<path class="st0" d="M373.7,393.9c2.6,31.6,55.3,52.8,98.6,46.9"/>
<path class="st1" d="M431.3,456.1c-12.6-2.9-26.8-8.1-40.2-15.4c0,0,9.1-2.7,13.3-2.4c4.1,0.3,3.5,4.6,6.1,3.1
	C421.4,435.5,431.5,455.5,431.3,456.1z"/>
<path class="st0" d="M489.7,453.7c-3.5,0.9-19.2,3.8-37.3,4.9c-6.1,0.2-13.4-0.7-21.2-2.5"/>
<path class="st0" d="M477,428.9c-2.4,1.4-5.4,6.1-4.7,11.9s10.2,8.6,15.7,11.3l0,0"/>
<path class="st1" d="M406.1,363.4c-2.3,2.2-6.9,0.1-9.4,2.9c-2.5,2.7-7.5,10.3-8.9,11.1c-1.4,0.8-4.3,4.6-6.9,4
	c-2.6-0.5-10.7-0.3-13.2,1.3c-2.5,1.6-4,8.2-5.2,9.1c-12.9,7.3-20.7-1.9-21.5-2.9c-8.8-25.6-0.1-56.6,43.1-90.6
	c1-0.6,9,6.2,10.9,8.7c1.9,2.6,13.1,17.2,13.3,22.6c0.3,5.4-4.3,7.2-3.6,14c0.1,3.7,5.4,6.3,5.7,10
	C410.8,357.4,408.4,361.2,406.1,363.4z"/>
<path class="st0" d="M711.2,405.2c2.8-1.3,5.8-3.9,8.6-7.3c14.4-17.6,23.4-58.3-23.5-75.7c-2.1-0.9-6.8-11.8-10.9-16.9"/>
<path class="st0" d="M384.1,298.3c0.6-0.5,1.2-1,1.8-1.4c24.2-19.4,96.1-43.2,166.2-43.1"/>
<path class="st0" d="M341,388.9c7.5,21.8,27.7,39.7,50.1,51.8"/>
<path class="st0" d="M487.2,415c20.7-7.2,34.3-17.2,45.4-28"/>
<path class="st0" d="M541.1,380.5c0-0.8,0-1.6-0.1-2.5c-0.2-5.5-0.7-10.8-1.6-15.7"/>
<path class="st0" d="M475.1,308.8c-6.6,0.5-13.6,1.8-21.1,4"/>
<path class="st1" d="M539.4,362.3c-15.2,6.6-21,7.8-27,9.7c-6.5,1.9-9.4,3.2-14.4,1.6c-0.3-0.1-4.4,0.3-6.6-1.6
	c-6-4.6-1.5-3.4-6.3-7.5c-4.6-4.1-23.9-3.1-27.2-12.3c-3.9-9.9,10.1-16.2,10.3-22.7c0-1.8-3.4-2.6-3.1-6c0.3-2.5,0.8-10,3.8-11.4
	c3.7-1.8,5.3,0.1,6.2-3.2C510.6,306.3,533.3,328,539.4,362.3z"/>
<path class="st1" d="M685.5,305.3c-0.5,0.7-4.5-0.6-5.6-0.4S660,312,652.8,315c-7.2,3-44.7-3.8-46-2.1c-1.3,1.7-12.7,0.8-19.5-4.9
	c-8.8-7.4-8.2-6.3-11-7.5c-2.3-1-10.2-2.9-16.1-12.1c-1.2-3.9-5.4-4.5-5.9-7.8c-0.4-2.4-4.2,1.8-2.8-13.1c0.2-2.3,1.9-8.6,0.6-13.7
	C604.5,253.8,655.8,267.1,685.5,305.3z"/>
<path class="st0" d="M482.2,429.6c-12.5,29.6,57.5,58.8,103,15.1"/>
<path class="st2" d="M623.9,328.7c23.7,0.7,44.1,10.3,58.9,19.6c7.1,4.7,11.6,10.3,15.6,16.6"/>
<path class="st2" d="M739.6,411.3c12.8,4.2,28.7,7.1,33.7,17.3c-24.1-5.4-67.5,28.2-111.1,12c-18.4-5.9-32.9-31.9-37.6-38.9
	s-16.9-8.1-16.9-8.1"/>
<path class="st2" d="M645.3,433.3c-11.5-3.4-54.7,25.7-75.5,23.1"/>
<g id="XMLID_2_">
	<g>
		<path d="M637.1,437.6c13.7,9.1,11.9,24.7,11.2,29.4c-4.4-5.2-8.4-10.7-14.9-14.8l0,0C634,449.2,627.6,447.2,637.1,437.6z"/>
	</g>
	<g>
		<path class="st2" d="M609.1,445.4c11.2,0.5,18.7,3.1,24.3,6.8c6.5,4.1,10.5,9.6,14.9,14.8c0.7-4.7,2.5-20.2-11.2-29.4
			c-1.2-0.8-2.6-1.6-4.1-2.3"/>
		<path class="st2" d="M637.1,437.6L637.1,437.6c-9.6,9.5-3.1,11.6-3.7,14.5"/>
	</g>
</g>
<path class="st0" d="M543.3,406.8c17,15.9,39.7,6,47.7,4.1"/>
<path d="M546.9,386.1c0.7,2.3,8.3-3.9,16.6-3.2c8.6-0.1,17.9,3.2,18.1,2.3s-12.4-3.8-18-4.1C557.9,380.8,546.2,383.8,546.9,386.1z"
	/>
<path class="st1" d="M496.4,423.5c-1.4,2.3-13.4,11.4-15.5,11l0,0c-2.1-0.4-2.7-3.9-3.9-5.7c-1.8-1.4-6.4-14.2,10.2-13.8
	C499.3,415,497.8,421.2,496.4,423.5z"/>
<path class="st1" d="M616.3,345.7c-2.5,2.7,1.6,4.4-5.9,8.3s-7.6-0.4-12.8,2.4c-5.2,2.8-3.1,4.4-7,6.3c-4.9,1.6-22,0.8-30.7,5.1
	c-8.7,4.3-24.8,24.2-27.3,19.2c3-2.9,5.8-5.9,8.5-9c17.5-19.6,30.7-39.6,64.3-48.1c6.4-1.1,12.6-1.5,18.6-1.3
	C624.5,332.1,621.8,340,616.3,345.7z"/>
<path class="st3" d="M739.6,411.3c0,0-5.1,10.1-13,10.4s-5.8-2-8.9-2.1c-5.4-0.1-13.8,10.4-26,4.7c-3.8-2.1-7-7.2-10.8-8.4
	c-3.7-1.2-6,2.6-8.1-4.1c-2.1-6.6,5.8-13.3,5.6-16.2c-0.5-4.7-15-13.5,20-30.8c6.1,9.5,10.9,20.7,21.4,33c1.8,2,3.6,4.1,5.7,6.2
	C728.7,407.3,733.8,409.4,739.6,411.3z"/>
<path id="hair_1_" d="M508.6,436.1c0,0-1.8-0.2-1.6,1.3c4.6,5,27.8,37.6,26.9,58.6C535,469.4,508.5,436,508.6,436.1z"/>
<path id="hair2_1_" d="M521.8,445.2c0,0-1.8-0.1-1.5,1.4c4.9,4.6,20.1,22.4,27.6,39C539.4,463.2,521.6,445.2,521.8,445.2z"/>
<path id="hair3_1_" d="M517.2,432.5c0,0-1.8,0.2-1.3,1.6c5.6,3.8,39.5,34.3,47,52.1C553,463.2,517,432.5,517.2,432.5z"/>
<path id="hair4_1_" d="M525.3,430.6c0,0-1.7,0.5-1,1.9c21.3,10.2,32.8,17.3,49.6,36.5C558.2,446.4,525.1,430.6,525.3,430.6z"/>
</svg>
