<?xml version="1.0" encoding="utf-8"?>
<!-- Generator: Adobe Illustrator 19.0.0, SVG Export Plug-In . SVG Version: 6.00 Build 0)  -->
<svg version="1.1" id="new_doggie" xmlns="http://www.w3.org/2000/svg" xmlns:xlink="http://www.w3.org/1999/xlink" x="0px" y="0px"
	 viewBox="0 0 850.4 850.4" style="enable-background:new 0 0 850.4 850.4;" xml:space="preserve">
<style type="text/css">
	.st0{fill:none;stroke:#000000;stroke-width:1.5649;stroke-linecap:round;stroke-linejoin:round;stroke-miterlimit:10;}
	.st1{stroke:#000000;stroke-width:1.5649;stroke-linecap:round;stroke-linejoin:round;stroke-miterlimit:10;}
	.st2{fill:none;stroke:#000000;stroke-width:1.5649;stroke-linecap:round;stroke-linejoin:round;}
	.st3{stroke:#000000;stroke-width:1.5649;stroke-linejoin:round;stroke-miterlimit:10;}
</style>
<path d="M323.6,230C-337.9,387.8,190.3,829.9,707,555C254.4,790.8-320.7,434.6,323.6,230z"/>
<path d="M159,309.6c406.1-191.2,897.5,110,514.1,290.3C1122.7,427.7,551.5,101.7,159,309.6z"/>
<g>
	<g>
		<path d="M135.5,479.2c2.5,1,3.7,1.5,6.2,2.5c0.5,12.6,1.2,25.2,2.2,37.8c9.3-8.7,18.4-17.6,27.3-26.6c0.4,0.2,0.7,0.2,1.1,0.4
			c1.3,12.7,2.8,25.3,4.6,37.9c8.7-9.2,17.3-18.5,25.7-28c2.6,0.8,3.9,1.2,6.4,1.9c-11.6,13.1-23.4,26-35.6,38.6
			c-0.5-0.2-0.7-0.2-1.2-0.4c-1.9-12.5-3.5-25-4.9-37.5c-9,8.9-18.1,17.6-27.4,26.1c-0.5-0.2-0.7-0.3-1.2-0.5
			C137.3,514.1,136.2,496.7,135.5,479.2z"/>
		<path d="M223.7,489.1c1.4,0.4,2.4,1.2,3.1,2.4c0.7,1.2,0.9,2.5,0.5,3.8c-0.4,1.3-1.2,2.3-2.4,3c-1.2,0.7-2.6,0.8-4,0.4
			c-1.4-0.4-2.4-1.2-3.1-2.4c-0.7-1.2-0.9-2.5-0.5-3.8c0.4-1.3,1.2-2.3,2.5-3C221,488.9,222.3,488.7,223.7,489.1z M215.3,507
			c2.5,0.7,3.7,1.1,6.2,1.7c-4.2,15.2-8.4,30.5-12.6,45.7c-2.6-0.7-4-1.1-6.6-1.9C206.6,537.4,211,522.2,215.3,507z"/>
		<path d="M269.4,552.5c2,1.5,3,2.2,5,3.7c-2.4,2.9-5.1,5.1-7.9,6.6c-2.8,1.5-5.8,2.5-9.1,2.9c-3.2,0.4-6.8,0.2-10.6-0.7
			c-8.5-1.9-14.5-6-18-12.1c-3.5-6.1-4.4-12.2-2.7-18.4c1.5-5.8,4.8-10.5,9.8-14.1c6.3-4.6,13.4-5.9,21.4-4.1
			c8.3,1.8,14.3,6.2,18.2,13.2c2.8,4.9,3.6,10.6,2.5,17c-15.2-3-30.3-6.2-45.3-9.9c-1.2,5.4-0.4,10.2,2.4,14.5s7,7.1,12.5,8.3
			c2.6,0.6,5.3,0.7,7.9,0.4c2.7-0.3,5-0.9,7-2C264.5,557,266.8,555.2,269.4,552.5z M271.8,540c-0.2-3.4-1-6.2-2.2-8.4
			c-1.2-2.2-3.1-4.2-5.5-5.9c-2.4-1.7-5.1-2.9-8-3.6c-4.8-1.1-9.3-0.6-13.4,1.5c-3,1.5-5.7,4.2-8.1,8.1
			C246.9,534.8,259.3,537.6,271.8,540z"/>
		<path d="M291.8,524.5c2.6,0.4,3.9,0.7,6.5,1.1c-0.4,2.7-0.7,4.1-1.1,6.8c2.4-2.4,4.7-4.1,7.1-5.1c2.3-1,4.7-1.3,7-1
			c1.7,0.3,3.5,1.1,5.4,2.4c-1.6,1.9-2.4,2.8-4,4.6c-1.3-0.7-2.3-1.2-3.3-1.3c-2.1-0.3-4.3,0.2-6.5,1.5c-2.2,1.3-4.2,3.7-5.8,7
			c-1.2,2.5-2.5,7.9-3.8,16c-1,6.3-1.6,9.5-2.6,15.8c-2.8-0.4-4.1-0.7-6.9-1.2C286.4,555.6,289.1,540,291.8,524.5z"/>
		<path d="M322,529c2.5,0.3,3.8,0.5,6.3,0.8c-0.4,3.4-0.6,5.1-1,8.4c3-2.9,6.1-5,9.3-6.3c3.3-1.3,6.7-1.7,10.3-1.4
			c3.7,0.4,6.9,1.5,9.6,3.6c2.7,2,4.7,4.6,5.8,7.7s1.5,7.9,1.1,14.4c-0.7,9.7-1,14.6-1.7,24.3c-2.7-0.2-4.1-0.3-6.8-0.5
			c0.7-9,1.1-13.5,1.8-22.5c0.4-5.4,0.4-9.1,0.1-11c-0.5-3.1-1.7-5.7-3.7-7.4c-2-1.8-4.6-2.8-8-3.1c-3.9-0.4-7.5,0.5-10.8,2.6
			c-3.3,2.1-5.8,4.8-7.2,8.3c-0.9,2.2-1.7,6.5-2.5,12.7c-0.8,6.9-1.3,10.4-2.1,17.3c-2.7-0.3-4.1-0.5-6.8-0.8
			C318,560.4,320,544.7,322,529z"/>
		<path d="M373.5,533.9c2.7,0.2,4,0.2,6.7,0.4c5.1,12.5,10.5,24.9,16.1,37.1c6.1-12,11.9-24,17.5-36.2c2.7,0,4.1,0,6.8,0
			c-10,21.8-20.6,43.1-31.9,64.2c-2.9-0.1-4.4-0.2-7.3-0.3c4.5-8.2,6.7-12.3,11-20.5C385.8,563.9,379.5,548.9,373.5,533.9z"/>
		<path d="M429,535.1c2.6,0,3.8-0.1,6.4-0.1c0.1,3.5,0.1,5.2,0.2,8.7c2.5-3.4,5.3-5.9,8.5-7.7c3.2-1.8,6.8-2.8,10.9-3
			c7-0.4,13.2,1.6,18.6,6.1s8.5,10,9.1,16.8c0.6,6.9-1.4,13.1-6.3,18.3c-4.9,5.3-11.1,8.1-18.6,8.5c-4.2,0.2-8.1-0.4-11.7-1.8
			c-3.6-1.4-6.8-3.7-9.7-6.7c0.3,10.2,0.4,15.3,0.6,25.5c-2.8,0.1-4.2,0.1-6.9,0.1C429.7,578.2,429.4,556.6,429,535.1z M454.8,538.8
			c-5.6,0.3-10.1,2.3-13.9,6.1c-3.7,3.8-5.5,8.4-5.4,13.9c0.1,3.6,1,6.8,2.9,9.6c1.8,2.8,4.4,5,7.8,6.6c3.4,1.6,6.9,2.2,10.6,2
			c3.6-0.2,7-1.2,10.1-3.1c3.1-1.9,5.4-4.4,7.1-7.6c1.6-3.2,2.3-6.4,2.1-9.8c-0.3-3.4-1.4-6.5-3.5-9.3c-2-2.9-4.6-5-7.8-6.5
			C461.7,539.3,458.4,538.7,454.8,538.8z"/>
		<path d="M492.7,511.6c1.4-0.2,2.7,0.2,3.8,1.1c1.1,0.9,1.7,2,1.9,3.4c0.2,1.4-0.2,2.6-1.1,3.7c-0.9,1.1-2.1,1.7-3.5,1.9
			c-1.4,0.1-2.7-0.2-3.8-1.1c-1.1-0.9-1.7-2-1.9-3.4c-0.1-1.4,0.2-2.6,1.1-3.7C490.2,512.4,491.3,511.7,492.7,511.6z M491.6,531.3
			c2.5-0.3,3.8-0.4,6.4-0.7c1.7,15.7,3.5,31.4,5.2,47.1c-2.7,0.3-4.1,0.4-6.8,0.7C494.8,562.8,493.2,547,491.6,531.3z"/>
		<path d="M558.4,553.6c2.4,0.6,3.6,1,6.1,1.6c-1.2,3.6-2.8,6.6-4.8,9.1c-2,2.5-4.5,4.5-7.4,6.1c-2.9,1.6-6.2,2.7-10.1,3.3
			c-8.5,1.4-15.6-0.2-21.1-4.5c-5.5-4.4-8.5-9.8-9.3-16.1c-0.8-6,0.6-11.5,3.8-16.7c4.1-6.6,10.2-10.5,18.3-11.8
			c8.4-1.4,15.5,0.4,21.7,5.5c4.4,3.6,7.3,8.5,8.6,14.8c-15.2,2.9-30.4,5.4-45.7,7.6c0.9,5.4,3.4,9.7,7.6,12.6s9.1,4,14.6,3.1
			c2.6-0.4,5.2-1.3,7.5-2.5c2.4-1.3,4.3-2.7,5.8-4.4C555.5,559.6,557,557,558.4,553.6z M556.1,541.1c-1.5-3-3.2-5.4-5.2-7
			c-2-1.6-4.4-2.8-7.3-3.5c-2.9-0.7-5.8-0.8-8.7-0.3c-4.9,0.8-8.8,2.9-11.9,6.4c-2.3,2.5-3.8,6-4.5,10.5
			C531.1,545.4,543.6,543.4,556.1,541.1z"/>
		<path d="M596.9,518.1c-1.2,2-1.8,3-3.1,4.9c-4.1-2.2-7.8-3-11-2.3c-2,0.5-3.7,1.5-4.8,3.1c-1.2,1.6-1.6,3.3-1.2,5
			c0.3,1.5,1.3,2.8,2.8,3.9c1.5,1.1,4.5,2.2,8.8,3.1c5.3,1.2,9.2,2.6,11.4,4.2c2.2,1.7,3.7,3.9,4.4,6.6c0.9,3.8,0.3,7.3-2,10.7
			c-2.3,3.4-5.8,5.6-10.2,6.6c-3,0.7-6,0.7-9,0.2c-3-0.6-5.6-1.7-7.8-3.4c1.3-2.1,2-3.1,3.3-5.1c4.1,2.7,8.1,3.6,11.9,2.8
			c2.7-0.6,4.7-1.9,6.2-3.9c1.5-2,2-4,1.5-6c-0.4-1.7-1.4-3.1-2.9-4.1c-1.5-1-4.7-2-9.3-3c-5-1.1-8.6-2.6-10.7-4.3
			c-2.1-1.8-3.4-4-4-6.7c-0.7-3.5-0.1-6.7,2-9.6c2-2.9,5-4.7,8.8-5.6C586.4,514.1,591.3,515.1,596.9,518.1z"/>
		<path d="M623.7,544.7c1.6-0.4,3.1-0.3,4.5,0.4c1.4,0.7,2.3,1.8,2.7,3.2c0.4,1.4,0.2,2.8-0.6,4.1c-0.8,1.3-2.1,2.2-3.7,2.7
			c-1.6,0.4-3.1,0.3-4.5-0.4c-1.4-0.7-2.3-1.8-2.7-3.2c-0.4-1.5-0.2-2.8,0.7-4.2C620.9,546,622.1,545.2,623.7,544.7z"/>
		<path d="M631.9,502.9c2.5-0.8,3.7-1.1,6.2-1.9c1,3.3,1.6,5,2.6,8.3c1.5-3.9,3.5-7.2,6.2-9.8c2.6-2.6,5.9-4.6,9.7-5.9
			c6.7-2.3,13.3-2.1,19.8,0.6c6.5,2.7,11.1,7.2,13.5,13.6c2.5,6.5,2.2,13-1.1,19.4c-3.3,6.4-8.6,10.9-15.7,13.4
			c-4,1.4-8,1.9-11.9,1.5c-3.9-0.4-7.7-1.6-11.3-3.7c3.1,9.7,4.6,14.6,7.7,24.3c-2.7,0.8-4,1.3-6.7,2.1
			C644.5,544.2,638.2,523.6,631.9,502.9z M658,499.3c-5.3,1.8-9.2,5.1-11.8,9.8c-2.6,4.7-3.1,9.7-1.4,14.9c1.1,3.4,2.9,6.3,5.5,8.4
			c2.6,2.2,5.7,3.6,9.4,4.1c3.7,0.5,7.4,0.2,10.9-1c3.5-1.2,6.5-3.2,8.9-5.9c2.5-2.7,4.1-5.8,4.8-9.3c0.7-3.5,0.5-6.8-0.7-10
			c-1.2-3.1-3.2-5.8-6-8c-2.8-2.2-5.9-3.5-9.4-4.1C664.9,497.8,661.4,498.1,658,499.3z"/>
		<path d="M685,464.7c2.4-1,3.5-1.4,5.9-2.4c8.4,20.2,16.8,40.5,25.1,60.7c-2.6,1.1-3.8,1.6-6.4,2.6
			C701.4,505.3,693.2,485,685,464.7z"/>
	</g>
</g>
<path class="st0" d="M254.7,423.3c2.6,31.6,55.3,52.8,98.6,46.9"/>
<path class="st1" d="M312.3,485.5c-12.6-2.9-26.8-8.1-40.2-15.4c0,0,9.1-2.7,13.3-2.4c4.1,0.3,3.5,4.6,6.1,3.1
	C302.4,464.9,312.5,484.9,312.3,485.5z"/>
<path class="st0" d="M370.7,483.1c-3.5,0.9-19.2,3.8-37.3,4.9c-6.1,0.2-13.4-0.7-21.2-2.5"/>
<path class="st0" d="M358,458.3c-2.4,1.4-5.4,6.1-4.7,11.9s10.2,8.6,15.7,11.3c0,0,0,0,0,0"/>
<path class="st1" d="M287.1,392.8c-2.3,2.2-6.9,0.1-9.4,2.9c-2.5,2.7-7.5,10.3-8.9,11.1c-1.4,0.8-4.3,4.6-6.9,4
	c-2.6-0.5-10.7-0.3-13.2,1.3c-2.5,1.6-4,8.2-5.2,9.1c-12.9,7.3-20.7-1.9-21.5-2.9c-8.8-25.6-0.1-56.6,43.1-90.6
	c1-0.6,9,6.2,10.9,8.7c1.9,2.6,13.1,17.2,13.3,22.6c0.3,5.4-4.3,7.2-3.6,14c0.1,3.7,5.4,6.3,5.7,10
	C291.8,386.8,289.4,390.6,287.1,392.8z"/>
<path class="st0" d="M592.2,434.6c2.8-1.3,5.8-3.9,8.6-7.3c14.4-17.6,23.4-58.3-23.5-75.7c-2.1-0.9-6.8-11.8-10.9-16.9"/>
<path class="st0" d="M265.1,327.7c0.6-0.5,1.2-1,1.8-1.4c24.2-19.4,96.1-43.2,166.2-43.1"/>
<path class="st0" d="M222,418.3c7.5,21.8,27.7,39.7,50.1,51.8"/>
<path class="st0" d="M368.2,444.4c20.7-7.2,34.3-17.2,45.4-28"/>
<path class="st0" d="M422.1,409.9c0-0.8,0-1.6-0.1-2.5c-0.2-5.5-0.7-10.8-1.6-15.7"/>
<path class="st0" d="M356.1,338.2c-6.6,0.5-13.6,1.8-21.1,4"/>
<path class="st1" d="M420.4,391.7c-15.2,6.6-21,7.8-27,9.7c-6.5,1.9-9.4,3.2-14.4,1.6c-0.3-0.1-4.4,0.3-6.6-1.6
	c-6-4.6-1.5-3.4-6.3-7.5c-4.6-4.1-23.9-3.1-27.2-12.3c-3.9-9.9,10.1-16.2,10.3-22.7c0-1.8-3.4-2.6-3.1-6c0.3-2.5,0.8-10,3.8-11.4
	c3.7-1.8,5.3,0.1,6.2-3.2C391.6,335.7,414.3,357.4,420.4,391.7z"/>
<path class="st1" d="M566.5,334.7c-0.5,0.7-4.5-0.6-5.6-0.4c-1.1,0.2-19.9,7.1-27.1,10.1c-7.2,3-44.7-3.8-46-2.1
	c-1.3,1.7-12.7,0.8-19.5-4.9c-8.8-7.4-8.2-6.3-11-7.5c-2.3-1-10.2-2.9-16.1-12.1c-1.2-3.9-5.4-4.5-5.9-7.8
	c-0.4-2.4-4.2,1.8-2.8-13.1c0.2-2.3,1.9-8.6,0.6-13.7C485.5,283.2,536.8,296.5,566.5,334.7z"/>
<path class="st0" d="M363.2,459c-12.5,29.6,57.5,58.8,103,15.1"/>
<path class="st2" d="M504.9,358.1c23.7,0.7,44.1,10.3,58.9,19.6c7.1,4.7,11.6,10.3,15.6,16.6"/>
<path class="st2" d="M620.6,440.7c12.8,4.2,28.7,7.1,33.7,17.3c-24.1-5.4-67.5,28.2-111.1,12c-18.4-5.9-32.9-31.9-37.6-38.9
	c-4.7-7-16.9-8.1-16.9-8.1"/>
<path class="st2" d="M526.3,462.7c-11.5-3.4-54.7,25.7-75.5,23.1"/>
<g id="XMLID_2_">
	<g>
		<path d="M518.1,467c13.7,9.1,11.9,24.7,11.2,29.4c-4.4-5.2-8.4-10.7-14.9-14.8l0,0C515,478.6,508.6,476.6,518.1,467z"/>
	</g>
	<g>
		<path class="st2" d="M490.1,474.8c11.2,0.5,18.7,3.1,24.3,6.8c6.5,4.1,10.5,9.6,14.9,14.8c0.7-4.7,2.5-20.2-11.2-29.4
			c-1.2-0.8-2.6-1.6-4.1-2.3"/>
		<path class="st2" d="M518.1,467L518.1,467c-9.6,9.5-3.1,11.6-3.7,14.5"/>
	</g>
</g>
<path class="st0" d="M424.3,436.2c17,15.9,39.7,6,47.7,4.1"/>
<path d="M427.9,415.5c0.7,2.3,8.3-3.9,16.6-3.2c8.6-0.1,17.9,3.2,18.1,2.3s-12.4-3.8-18-4.1C438.9,410.2,427.2,413.2,427.9,415.5z"
	/>
<path class="st1" d="M377.4,452.9c-1.4,2.3-13.4,11.4-15.5,11h0c-2.1-0.4-2.7-3.9-3.9-5.7c-1.8-1.4-6.4-14.2,10.2-13.8
	C380.3,444.4,378.8,450.6,377.4,452.9z"/>
<path class="st1" d="M497.3,375.1c-2.5,2.7,1.6,4.4-5.9,8.3s-7.6-0.4-12.8,2.4c-5.2,2.8-3.1,4.4-7,6.3c-4.9,1.6-22,0.8-30.7,5.1
	c-8.7,4.3-24.8,24.2-27.3,19.2c3-2.9,5.8-5.9,8.5-9c17.5-19.6,30.7-39.6,64.3-48.1c6.4-1.1,12.6-1.5,18.6-1.3
	C505.5,361.5,502.8,369.4,497.3,375.1z"/>
<path class="st3" d="M620.6,440.7c0,0-5.1,10.1-13,10.4c-7.9,0.3-5.8-2-8.9-2.1c-5.4-0.1-13.8,10.4-26,4.7c-3.8-2.1-7-7.2-10.8-8.4
	c-3.7-1.2-6,2.6-8.1-4.1c-2.1-6.6,5.8-13.3,5.6-16.2c-0.5-4.7-15-13.5,20-30.8c6.1,9.5,10.9,20.7,21.4,33c1.8,2,3.6,4.1,5.7,6.2
	C609.7,436.7,614.8,438.8,620.6,440.7z"/>
<path id="hair_1_" d="M389.6,465.5c0,0-1.8-0.2-1.6,1.3c4.6,5,27.8,37.6,26.9,58.6C416,498.8,389.5,465.4,389.6,465.5z"/>
<path id="hair2_1_" d="M402.8,474.6c0,0-1.8-0.1-1.5,1.4c4.9,4.6,20.1,22.4,27.6,39C420.4,492.6,402.6,474.6,402.8,474.6z"/>
<path id="hair3_1_" d="M398.2,461.9c0,0-1.8,0.2-1.3,1.6c5.6,3.8,39.5,34.3,47,52.1C434,492.6,398,461.9,398.2,461.9z"/>
<path id="hair4_1_" d="M406.3,460c0,0-1.7,0.5-1,1.9c21.3,10.2,32.8,17.3,49.6,36.5C439.2,475.8,406.1,460,406.3,460z"/>
</svg>
