<?xml version="1.0" standalone="no"?>
<!DOCTYPE svg PUBLIC "-//W3C//DTD SVG 20010904//EN"
 "http://www.w3.org/TR/2001/REC-SVG-20010904/DTD/svg10.dtd">
<svg version="1.0" xmlns="http://www.w3.org/2000/svg"
 width="4167.000000pt" height="4167.000000pt" viewBox="0 0 4167.000000 4167.000000"
 preserveAspectRatio="xMidYMid meet">
<metadata>
Created by potrace 1.11, written by Peter Selinger 2001-2013
</metadata>
<g transform="translate(0.000000,4167.000000) scale(0.100000,-0.100000)"
fill="#000000" stroke="none">
<path d="M19847 31074 c-1 -1 -108 -5 -237 -9 -129 -4 -275 -8 -325 -10 -198
-8 -384 -16 -459 -21 -43 -2 -120 -7 -170 -9 -50 -2 -120 -7 -156 -10 -36 -3
-110 -8 -165 -11 -55 -3 -118 -7 -140 -9 -22 -2 -80 -6 -130 -10 -122 -8 -200
-14 -260 -20 -27 -3 -81 -7 -120 -10 -38 -3 -88 -7 -110 -10 -46 -5 -122 -12
-215 -20 -36 -3 -81 -7 -100 -10 -19 -2 -64 -7 -100 -11 -36 -4 -76 -8 -90 -9
-14 -1 -61 -6 -105 -10 -44 -3 -87 -8 -95 -11 -8 -2 -42 -6 -75 -9 -33 -3 -71
-8 -85 -10 -14 -2 -56 -7 -95 -11 -38 -3 -79 -8 -90 -10 -11 -2 -42 -6 -70 -9
-27 -3 -66 -7 -85 -10 -19 -3 -57 -7 -85 -10 -27 -4 -61 -8 -75 -10 -14 -2
-63 -9 -110 -15 -47 -6 -98 -12 -115 -15 -16 -2 -52 -7 -80 -10 -27 -3 -61 -8
-75 -10 -14 -3 -43 -7 -65 -11 -22 -3 -51 -7 -65 -9 -14 -3 -50 -7 -80 -10
-30 -4 -62 -8 -70 -10 -8 -3 -44 -9 -80 -14 -36 -5 -112 -17 -170 -26 -58 -9
-118 -18 -135 -21 -41 -5 -76 -11 -178 -29 -48 -8 -104 -17 -125 -20 -20 -2
-48 -7 -62 -10 -14 -2 -38 -7 -55 -9 -16 -3 -95 -17 -175 -31 -159 -28 -227
-40 -280 -49 -19 -4 -46 -9 -60 -11 -58 -12 -77 -15 -105 -20 -16 -3 -100 -19
-185 -36 -85 -17 -164 -32 -175 -34 -24 -4 -322 -64 -350 -71 -11 -2 -33 -7
-50 -10 -16 -3 -58 -11 -91 -19 -34 -8 -73 -16 -85 -19 -13 -2 -77 -16 -141
-30 -64 -14 -127 -28 -140 -30 -23 -5 -365 -84 -403 -92 -11 -3 -31 -7 -45
-10 -14 -3 -50 -11 -80 -19 -56 -15 -621 -154 -649 -160 -65 -14 -753 -202
-976 -267 -77 -22 -153 -44 -170 -48 -16 -4 -136 -40 -265 -80 -129 -39 -251
-76 -270 -82 -19 -5 -53 -16 -75 -23 -63 -22 -459 -149 -467 -149 -3 -1 -10
-4 -14 -8 -4 -5 -14 -8 -23 -8 -9 0 -45 -11 -81 -24 -36 -13 -191 -68 -345
-121 -624 -217 -1115 -407 -1718 -666 -202 -87 -277 -120 -402 -179 -33 -16
-96 -45 -140 -65 -146 -68 -528 -258 -660 -328 -503 -269 -773 -433 -1194
-727 -170 -119 -836 -651 -1067 -852 -16 -14 -69 -61 -119 -103 -92 -80 -116
-100 -248 -219 -208 -186 -388 -357 -627 -596 -192 -193 -412 -421 -477 -496
-10 -12 -48 -54 -84 -95 -37 -41 -88 -99 -114 -129 -26 -30 -59 -68 -74 -85
-114 -132 -307 -373 -436 -545 -59 -80 -121 -162 -138 -183 -124 -161 -447
-672 -595 -943 -60 -110 -242 -469 -242 -478 0 -2 -16 -40 -36 -83 -154 -334
-345 -909 -409 -1232 -2 -9 -10 -50 -19 -91 -15 -77 -21 -107 -31 -174 -4 -21
-8 -47 -10 -56 -2 -10 -6 -40 -10 -67 -4 -26 -9 -59 -11 -73 -2 -14 -6 -56
-10 -95 -3 -38 -8 -79 -10 -90 -26 -131 -25 -870 0 -1025 3 -14 7 -52 11 -85
3 -33 8 -73 11 -90 2 -16 6 -46 9 -65 8 -66 35 -215 54 -305 11 -49 22 -102
25 -117 13 -62 17 -77 47 -183 17 -60 32 -117 34 -125 2 -8 21 -71 43 -140
229 -711 603 -1396 1130 -2070 59 -74 109 -137 112 -140 3 -3 27 -32 55 -65
27 -33 52 -62 55 -65 3 -3 32 -36 65 -75 33 -38 62 -72 65 -75 3 -3 50 -54
105 -115 107 -116 376 -388 491 -495 39 -36 95 -88 125 -116 103 -96 365 -319
514 -439 83 -66 152 -122 155 -125 3 -3 30 -23 60 -45 30 -22 57 -42 60 -45
20 -24 402 -298 615 -441 235 -158 551 -358 710 -449 17 -10 84 -49 150 -87
136 -80 189 -109 295 -166 41 -22 85 -46 98 -54 96 -59 808 -408 1052 -515 25
-11 73 -33 108 -49 35 -16 69 -29 75 -29 7 0 17 -4 23 -9 12 -11 541 -229 574
-237 3 0 16 -5 30 -11 231 -93 972 -342 1160 -388 8 -2 49 -14 90 -25 41 -12
82 -23 90 -26 8 -2 85 -22 170 -44 127 -34 407 -102 470 -115 59 -12 381 -75
406 -79 70 -13 271 -45 304 -50 19 -2 58 -8 85 -11 28 -4 61 -9 75 -11 14 -2
50 -6 80 -10 30 -3 69 -7 85 -10 17 -2 64 -6 105 -10 41 -3 86 -8 100 -10 158
-24 734 -24 1010 1 25 2 83 7 130 10 47 4 103 8 125 11 22 2 74 6 115 9 41 3
91 7 110 9 19 3 67 8 105 11 39 3 88 8 110 11 48 5 107 11 195 20 36 3 72 7
80 9 8 2 49 6 90 10 41 4 83 9 92 10 9 2 43 6 75 10 32 3 69 8 83 10 14 2 48
6 75 10 95 11 121 14 265 35 80 11 162 22 184 25 64 8 117 15 206 30 47 8 105
17 130 20 38 5 102 16 305 49 11 2 40 7 65 11 25 4 52 9 60 10 32 6 186 35
206 39 12 2 37 7 55 10 19 3 67 12 106 20 40 9 87 18 105 21 18 4 52 11 76 17
41 10 43 9 89 -28 154 -129 417 -312 588 -409 179 -102 463 -243 600 -297 28
-11 64 -25 80 -33 96 -42 458 -167 590 -203 22 -7 72 -20 110 -31 61 -18 254
-65 310 -77 11 -2 45 -9 75 -16 30 -6 62 -12 70 -14 8 -1 94 -16 190 -33 96
-17 199 -33 230 -36 30 -4 62 -8 70 -10 8 -2 44 -7 79 -10 65 -7 78 -8 211
-20 41 -4 91 -8 110 -10 19 -2 43 -4 53 -4 20 -1 69 -99 227 -456 58 -130 110
-258 110 -268 0 -7 4 -17 9 -22 22 -24 194 -519 260 -750 24 -84 71 -270 77
-305 3 -14 7 -33 10 -42 3 -10 7 -30 10 -45 2 -16 11 -64 19 -108 8 -44 17
-93 19 -110 3 -16 9 -57 12 -90 4 -33 8 -67 10 -75 1 -8 3 -30 3 -47 1 -18 6
-33 12 -33 5 0 8 3 6 8 -3 4 -8 46 -12 94 -3 49 -8 96 -9 105 -2 10 -7 49 -11
86 -3 37 -8 76 -10 85 -1 9 -6 40 -9 67 -4 28 -9 57 -11 65 -3 8 -7 31 -9 50
-7 57 -43 225 -76 365 -38 158 -36 148 -55 215 -9 30 -18 63 -20 74 -7 30 -74
241 -117 371 -47 138 -149 407 -214 563 -77 183 -85 204 -74 197 6 -4 135 -6
288 -6 275 1 364 4 538 16 l91 7 63 -94 c35 -51 68 -94 72 -96 4 -2 8 -8 8
-12 0 -5 40 -69 88 -142 268 -403 481 -769 682 -1172 54 -109 102 -201 105
-204 9 -9 -107 272 -179 432 -101 225 -301 621 -386 766 -16 28 -30 53 -30 56
0 2 -64 112 -143 242 l-143 238 36 2 c32 2 159 18 220 27 14 2 59 9 100 14 41
6 91 14 110 17 41 6 283 52 320 60 14 3 36 7 50 10 14 3 39 9 56 13 38 10 34
13 114 -79 36 -41 67 -77 70 -80 10 -10 197 -236 302 -366 306 -379 627 -845
793 -1152 15 -28 30 -51 32 -49 5 5 -182 342 -259 467 -36 58 -80 130 -99 160
-95 154 -491 716 -529 750 -3 3 -25 32 -50 65 -24 33 -50 66 -56 75 -7 8 -53
65 -103 126 l-89 112 46 12 c365 94 829 249 1067 355 17 7 63 28 104 45 83 36
212 95 254 117 l28 14 127 -129 c159 -161 404 -421 492 -522 16 -18 137 -152
190 -210 l32 -35 -23 35 c-22 34 -247 330 -258 340 -3 3 -24 28 -46 55 -64 80
-252 292 -350 393 -49 52 -91 97 -92 100 -2 4 36 27 85 52 48 24 134 70 191
103 61 35 114 58 130 57 178 -9 525 -1 608 14 10 2 43 7 74 10 31 4 67 9 80
11 13 3 64 12 114 21 49 8 92 17 95 19 3 2 25 6 49 10 24 3 54 10 67 15 13 5
24 8 24 6 0 -2 69 14 153 35 83 22 159 42 167 44 83 18 653 208 845 280 110
42 205 77 210 79 6 2 19 7 30 11 11 4 108 43 215 86 205 81 625 257 845 354
l130 57 100 -7 c55 -3 118 -8 140 -10 22 -2 69 -7 105 -10 36 -4 79 -8 95 -10
17 -2 55 -6 85 -10 51 -6 67 -8 145 -20 227 -34 478 -89 670 -147 39 -12 75
-23 80 -24 18 -4 220 -76 250 -89 17 -7 59 -25 95 -40 91 -38 313 -150 385
-192 465 -277 812 -601 1345 -1258 36 -44 75 -91 88 -105 13 -14 39 -46 60
-72 24 -32 44 -48 58 -48 28 0 33 16 49 155 4 28 8 60 10 72 23 145 24 629 1
773 -2 14 -7 47 -11 73 -4 27 -8 58 -11 70 -2 12 -6 39 -9 62 -7 47 -59 257
-82 330 -61 193 -176 435 -286 603 -144 219 -354 444 -559 597 -57 42 -110 82
-118 88 -33 26 -107 71 -221 137 -80 46 -113 69 -101 73 9 2 87 26 172 52 85
26 161 48 170 50 8 2 33 8 55 14 22 5 56 13 75 16 19 3 43 8 52 11 20 6 40 10
93 18 148 21 271 24 373 6 96 -16 119 -7 89 34 -21 29 -134 46 -277 41 -69 -2
-132 -6 -140 -9 -8 -2 -33 -7 -55 -10 -22 -3 -65 -10 -95 -16 -96 -20 -110
-23 -175 -40 -22 -6 -49 -13 -60 -15 -11 -3 -65 -19 -120 -35 -55 -17 -107
-33 -115 -35 -64 -17 -382 -134 -605 -223 -213 -85 -689 -286 -818 -346 -42
-20 -79 -36 -82 -36 -2 0 -30 -12 -62 -26 -103 -48 -844 -374 -848 -374 -2 0
-37 -15 -77 -34 -40 -18 -134 -59 -208 -91 -74 -32 -153 -66 -175 -76 -22 -10
-80 -34 -130 -54 -49 -21 -103 -43 -120 -50 -16 -8 -93 -39 -170 -70 -77 -31
-149 -60 -160 -65 -87 -39 -510 -195 -720 -266 -104 -35 -191 -65 -192 -65 -2
-1 -6 -2 -10 -3 -5 -1 -53 -16 -108 -34 -199 -63 -458 -131 -675 -177 -8 -1
-58 -10 -110 -19 -52 -9 -104 -18 -116 -20 -12 -2 -45 -7 -75 -11 -30 -3 -65
-8 -79 -10 -103 -15 -394 -25 -458 -15 l-34 5 69 40 c148 86 689 464 723 504
3 3 39 33 80 65 204 162 520 449 520 472 0 7 -9 18 -21 25 -22 11 -23 11 -109
-71 -33 -31 -184 -168 -213 -193 -12 -10 -33 -28 -47 -40 -145 -127 -411 -332
-590 -457 -47 -32 -89 -63 -95 -67 -20 -17 -312 -201 -405 -255 -148 -86 -196
-113 -330 -182 l-126 -64 -71 71 c-38 40 -123 122 -188 182 -65 61 -123 115
-129 120 -27 25 -250 218 -331 286 -469 395 -1059 819 -1695 1220 -63 39 -131
81 -150 93 -20 12 -81 47 -135 80 -55 32 -116 69 -135 81 -43 28 -272 158
-435 247 -66 37 -145 80 -175 96 -30 17 -119 63 -196 103 l-142 73 -40 -27
c-56 -40 -76 -92 -52 -138 6 -10 50 -38 98 -60 113 -53 924 -458 937 -468 5
-4 64 -36 130 -71 215 -113 661 -370 850 -490 239 -151 599 -400 735 -507 303
-239 596 -482 696 -578 11 -11 72 -68 135 -126 63 -59 140 -132 173 -162 l59
-56 -117 -55 c-137 -65 -366 -162 -487 -206 -46 -17 -91 -33 -99 -37 -8 -3
-19 -7 -25 -9 -5 -1 -71 -23 -145 -49 -141 -49 -463 -143 -564 -166 l-58 -13
-37 41 c-20 23 -75 88 -122 144 -84 101 -100 120 -157 184 -15 17 -56 64 -92
105 -36 41 -72 81 -80 90 -8 9 -49 53 -90 99 -41 47 -85 96 -98 110 -42 46
-224 242 -327 351 -135 142 -912 919 -1055 1054 -63 60 -140 132 -170 160 -30
29 -118 110 -195 181 -77 71 -147 136 -156 144 -14 14 -138 127 -186 169 -11
9 -54 48 -96 85 -140 127 -126 118 -166 101 -20 -8 -46 -22 -58 -29 -25 -17
-40 -76 -27 -105 5 -10 54 -52 109 -93 55 -42 113 -87 128 -101 16 -14 47 -40
70 -58 53 -43 407 -348 471 -408 28 -25 73 -66 100 -91 179 -162 408 -376 585
-544 182 -173 832 -825 983 -985 209 -223 371 -398 410 -442 9 -11 48 -54 85
-95 37 -42 69 -79 71 -83 2 -4 -14 -11 -35 -16 -21 -4 -40 -8 -43 -9 -25 -7
-76 -18 -93 -20 -12 -2 -47 -8 -77 -14 -30 -6 -68 -13 -85 -16 -16 -3 -46 -8
-65 -11 -19 -2 -46 -6 -60 -9 -14 -3 -41 -7 -60 -10 -19 -3 -46 -7 -60 -10
-14 -2 -52 -7 -85 -11 -33 -3 -68 -8 -78 -10 -9 -1 -52 -6 -95 -9 l-77 -7 -57
87 c-32 48 -58 91 -58 96 0 5 -4 9 -9 9 -5 0 -14 14 -21 30 -7 17 -16 30 -21
30 -5 0 -9 5 -9 11 0 6 -9 23 -20 37 -12 15 -79 110 -150 212 -152 217 -128
184 -309 424 -123 162 -412 527 -446 562 -5 6 -28 32 -50 59 -22 27 -60 72
-85 100 -25 28 -74 84 -110 125 -36 41 -96 107 -133 147 -64 66 -71 72 -100
66 -70 -13 -101 -40 -111 -97 -4 -23 6 -38 71 -104 102 -105 195 -204 273
-292 36 -40 72 -80 80 -89 148 -154 695 -834 890 -1106 30 -42 60 -82 65 -88
38 -44 163 -227 157 -231 -24 -14 -789 -30 -875 -18 -17 3 -32 13 -37 26 -60
159 -458 933 -601 1171 -10 17 -27 46 -38 67 -36 64 -221 368 -329 538 -105
166 -381 581 -392 590 -3 3 -31 41 -61 85 -30 44 -59 87 -66 95 -7 8 -62 83
-123 167 l-110 152 -44 -4 c-25 -2 -54 -8 -65 -15 -25 -13 -49 -57 -47 -87 0
-11 36 -64 80 -117 180 -219 413 -540 642 -886 57 -85 108 -160 114 -167 5 -7
10 -14 10 -17 0 -2 17 -31 39 -63 102 -154 368 -595 479 -793 14 -25 57 -101
95 -170 79 -141 287 -543 287 -554 0 -7 -49 -5 -195 9 -109 10 -243 25 -275
30 -45 7 -154 24 -195 30 -23 3 -52 8 -65 10 -14 3 -41 8 -60 11 -40 6 -273
55 -370 78 -487 112 -1047 323 -1455 549 -60 33 -119 66 -130 72 -82 44 -325
208 -438 296 -142 109 -194 156 -342 304 -230 229 -349 390 -479 645 -132 259
-193 503 -194 770 -1 176 -1 176 62 191 28 6 56 15 61 19 6 4 44 24 85 46 158
81 395 236 628 412 85 65 168 126 183 138 51 37 272 229 334 290 118 116 168
199 199 334 17 74 15 216 -5 270 -17 49 -69 129 -110 169 -103 102 -323 187
-534 207 -38 3 -79 8 -90 9 -11 1 -27 3 -35 4 -8 1 26 17 76 36 129 47 353
134 389 150 17 8 107 46 200 86 94 39 217 93 273 120 57 27 106 49 108 49 7 0
410 202 489 245 418 228 753 432 1044 636 69 49 134 94 145 101 167 114 604
459 801 633 253 223 306 271 474 432 84 81 101 93 101 73 0 -5 13 -16 28 -24
115 -59 299 18 602 252 134 104 445 374 654 567 19 18 150 137 191 174 22 20
87 79 145 132 485 438 805 679 1030 775 47 20 99 42 115 49 29 13 137 48 245
79 62 17 257 62 310 71 19 3 46 8 60 10 14 3 36 8 50 10 14 3 39 7 55 9 17 3
44 7 60 10 86 13 250 36 300 41 61 5 161 15 205 20 25 3 70 7 100 10 30 3 75
7 100 10 25 2 81 7 125 10 44 3 105 8 135 10 30 3 89 7 130 10 41 3 101 7 133
10 31 3 83 7 115 10 31 3 86 7 122 11 36 3 81 7 100 9 85 8 212 27 298 45 163
33 266 109 380 279 114 170 200 247 383 344 164 86 268 106 429 80 285 -46
476 -13 764 134 61 31 122 64 136 73 14 9 45 30 70 46 25 16 47 31 50 34 3 3
23 18 44 34 85 64 153 152 183 238 7 22 16 79 19 126 9 153 22 183 135 308
298 331 539 768 640 1162 15 62 31 136 35 165 4 28 8 59 10 67 1 8 3 48 3 87
l1 73 88 -5 c137 -7 263 -15 312 -20 25 -2 72 -7 105 -10 113 -10 170 -15 205
-20 19 -2 58 -7 85 -10 28 -3 64 -7 80 -10 17 -3 46 -7 65 -9 35 -5 265 -41
330 -52 28 -4 250 -48 355 -70 20 -4 39 -8 195 -45 47 -11 93 -22 103 -24 10
-2 27 -7 37 -10 10 -3 27 -7 37 -9 185 -36 1029 -308 1228 -395 11 -5 63 -26
115 -46 52 -20 111 -44 130 -52 19 -8 44 -19 55 -24 553 -237 958 -438 1455
-722 473 -270 695 -418 955 -635 161 -135 381 -354 505 -502 25 -30 59 -70 76
-90 17 -19 77 -96 133 -170 55 -74 105 -140 110 -146 27 -33 204 -305 200
-308 -2 -2 -84 -45 -182 -95 -435 -224 -800 -443 -1092 -654 -93 -68 -231
-175 -271 -212 -6 -5 -47 -41 -90 -80 -89 -79 -247 -247 -296 -315 -18 -25
-35 -47 -38 -50 -16 -14 -103 -164 -135 -233 -32 -71 -64 -177 -80 -262 -6
-35 -7 -206 -1 -250 19 -137 71 -273 191 -495 95 -177 129 -265 120 -316 -7
-50 -64 -163 -144 -289 -155 -245 -233 -377 -285 -486 -54 -113 -99 -235 -110
-300 -3 -19 -8 -45 -11 -59 -10 -45 -12 -185 -4 -246 19 -139 109 -357 181
-438 41 -47 91 -83 130 -93 40 -10 141 -11 200 -2 169 27 288 12 405 -51 128
-69 191 -120 458 -376 275 -263 386 -348 540 -410 78 -31 231 -81 277 -89 13
-3 34 -7 48 -10 106 -21 149 -25 290 -26 140 -1 208 5 325 28 231 45 495 148
805 314 408 219 554 272 693 255 46 -6 71 -17 120 -52 162 -114 247 -136 553
-139 173 -1 234 5 374 39 31 8 128 49 195 83 165 83 382 268 539 460 73 89
225 312 247 362 8 17 20 31 28 31 7 0 84 -22 170 -49 86 -27 219 -68 296 -91
302 -89 640 -193 755 -230 36 -12 72 -23 80 -25 46 -11 441 -156 504 -185 25
-11 49 -20 54 -20 5 0 36 -13 70 -30 34 -16 69 -30 77 -30 8 0 15 -4 15 -10 0
-5 6 -10 14 -10 33 0 376 -188 516 -283 152 -103 336 -274 429 -397 14 -19 28
-37 31 -40 9 -9 90 -136 90 -142 0 -3 -21 -1 -47 4 -206 40 -610 41 -908 3
-141 -18 -214 -29 -300 -45 -55 -11 -111 -21 -125 -24 -70 -12 -289 -60 -395
-87 -66 -17 -128 -32 -138 -34 -69 -15 -449 -123 -757 -216 -36 -11 -78 -24
-95 -29 -42 -12 -169 -51 -305 -95 -63 -20 -149 -47 -190 -60 -41 -13 -187
-59 -325 -104 -244 -78 -337 -107 -695 -216 -168 -52 -348 -105 -495 -147
-157 -45 -535 -146 -575 -154 -14 -2 -31 -7 -38 -9 -15 -6 -427 -103 -485
-114 -23 -5 -78 -16 -122 -26 -44 -9 -91 -18 -105 -21 -14 -2 -45 -9 -70 -14
-60 -13 -315 -58 -365 -65 -23 -3 -50 -7 -60 -9 -11 -2 -45 -7 -75 -12 -30 -4
-57 -8 -60 -9 -3 -1 -34 -5 -70 -9 -36 -5 -74 -10 -85 -12 -11 -2 -47 -6 -80
-9 -33 -3 -94 -10 -135 -15 -41 -5 -115 -12 -165 -16 -49 -3 -98 -8 -107 -9
-137 -26 -1018 -26 -1283 0 -16 1 -66 6 -110 10 -44 4 -88 9 -97 10 -9 2 -48
7 -85 10 -37 4 -75 8 -83 10 -8 2 -35 7 -60 10 -57 8 -98 14 -130 20 -14 3
-41 7 -60 10 -19 3 -102 20 -185 36 -82 17 -157 32 -165 34 -24 5 -278 72
-360 95 -102 28 -348 109 -387 126 -17 8 -34 14 -37 14 -21 0 -278 101 -381
150 -332 157 -696 408 -1035 714 -77 70 -421 418 -495 501 -38 43 -77 86 -86
95 -101 106 -378 454 -567 710 -83 113 -159 216 -170 230 -10 14 -47 68 -83
120 -35 52 -66 97 -69 100 -5 4 -184 274 -240 360 -5 8 -36 56 -68 105 -32 50
-114 178 -182 285 -228 360 -250 390 -365 501 -88 85 -112 104 -201 163 -99
66 -221 132 -334 181 -47 20 -94 40 -105 46 -39 18 -264 88 -366 115 -127 32
-404 81 -450 80 -29 -1 -34 -5 -37 -28 -4 -30 4 -33 89 -43 31 -3 67 -8 80
-10 13 -3 38 -7 54 -9 86 -12 330 -74 475 -122 222 -74 468 -196 610 -303 193
-145 261 -232 580 -740 25 -40 73 -115 108 -167 34 -52 62 -99 62 -104 0 -6 4
-10 8 -10 5 0 14 -11 20 -25 7 -14 17 -31 22 -38 6 -7 50 -71 98 -142 161
-241 253 -374 377 -542 93 -126 325 -429 352 -458 10 -11 36 -43 58 -70 44
-55 42 -52 206 -240 202 -232 440 -471 639 -645 41 -36 77 -67 80 -70 39 -43
329 -261 469 -351 58 -38 111 -74 118 -79 7 -6 15 -10 18 -10 3 0 23 -11 44
-25 70 -44 286 -151 387 -193 195 -80 714 -252 834 -277 8 -1 35 -8 60 -15 25
-7 52 -13 61 -15 9 -2 33 -8 55 -14 81 -22 354 -76 494 -97 19 -3 46 -7 60
-10 14 -2 45 -6 70 -10 25 -3 56 -7 70 -10 14 -2 50 -6 80 -9 30 -3 69 -8 85
-10 17 -2 66 -6 110 -10 44 -4 100 -8 124 -10 259 -24 907 -24 1156 -1 22 3
76 7 120 10 44 4 100 9 125 11 25 3 68 7 95 10 28 3 64 7 80 9 17 2 57 7 90
10 33 4 87 11 120 16 33 5 83 11 110 15 28 3 57 8 65 10 8 2 35 6 60 9 25 3
56 8 70 11 14 3 43 7 65 10 22 3 47 7 55 10 8 3 31 7 50 10 39 5 72 11 146 26
28 5 61 12 75 14 31 6 54 11 109 24 25 5 56 12 70 14 23 4 198 42 245 53 11 3
31 7 45 10 20 4 182 44 400 98 8 2 76 20 150 40 74 21 142 39 150 40 33 8 354
100 480 138 74 22 140 41 145 42 23 5 493 153 1165 366 245 78 452 143 460
145 8 2 38 11 65 19 181 54 617 179 700 201 96 25 115 30 160 39 11 2 40 9 65
16 25 7 56 14 70 17 14 2 50 10 80 17 30 7 80 18 110 24 30 6 78 16 105 22 91
19 357 60 424 65 36 4 82 8 101 11 60 10 532 13 585 4 28 -4 75 -11 105 -14
30 -4 86 -13 123 -20 58 -11 71 -11 83 1 18 19 19 17 -13 77 -148 275 -390
514 -733 721 -87 53 -399 215 -413 215 -4 0 -35 13 -69 29 -138 62 -438 174
-641 237 -62 20 -121 40 -132 45 -16 8 -79 27 -140 43 -19 5 -160 48 -185 57
-14 5 -108 33 -210 63 -749 221 -1135 358 -1440 511 -267 133 -403 228 -575
401 -160 160 -475 502 -483 524 -2 5 32 55 76 112 84 111 257 370 303 453 9
17 42 77 74 135 228 411 413 907 521 1395 14 63 63 349 69 400 4 33 8 71 10
85 4 23 13 124 21 225 1 22 3 144 4 271 1 210 -2 278 -15 399 -3 22 -7 65 -10
95 -3 30 -7 66 -10 80 -3 14 -7 43 -10 65 -3 22 -7 51 -10 65 -3 14 -8 41 -11
61 -3 20 -16 83 -30 140 -13 57 -27 114 -29 127 -13 54 -79 263 -116 364 -39
106 -56 144 -138 323 -85 182 -238 434 -384 630 -208 279 -519 595 -802 815
-38 30 -72 57 -75 61 -9 11 -273 193 -370 256 -141 90 -344 205 -525 297 -154
78 -210 105 -340 162 -33 14 -79 35 -103 45 -23 11 -118 49 -210 85 -153 60
-171 69 -215 116 -66 70 -171 232 -327 508 -73 129 -142 251 -153 270 -11 19
-30 55 -43 78 -13 24 -61 107 -106 183 -46 77 -88 148 -93 157 -6 9 -19 31
-29 47 -11 17 -35 55 -54 85 -32 50 -159 228 -172 240 -3 3 -41 50 -84 105
-44 55 -82 102 -85 105 -3 3 -28 32 -56 65 -27 33 -54 65 -60 71 -5 6 -25 29
-43 51 -18 22 -47 56 -65 75 -18 18 -70 76 -117 128 -109 122 -504 517 -640
642 -663 606 -1397 1129 -2225 1588 -255 142 -713 369 -990 492 -49 22 -108
48 -130 58 -147 67 -585 241 -849 337 -513 187 -1362 442 -1756 528 -8 2 -55
13 -105 25 -49 12 -101 24 -115 27 -14 2 -61 13 -105 23 -75 19 -340 76 -395
86 -21 4 -63 12 -145 30 -5 1 -28 5 -50 8 -22 4 -74 13 -115 21 -41 8 -86 17
-100 19 -14 2 -36 7 -50 10 -14 3 -38 7 -55 10 -26 4 -92 14 -190 31 -16 3
-39 7 -50 10 -11 2 -42 7 -70 10 -27 4 -57 8 -65 10 -12 4 -393 59 -555 81
-22 3 -51 7 -65 9 -14 2 -50 6 -80 10 -30 3 -71 7 -90 10 -74 10 -177 22 -255
30 -91 9 -146 15 -185 20 -19 2 -69 7 -110 10 -41 4 -86 8 -100 10 -14 2 -59
6 -100 10 -41 3 -95 8 -120 10 -25 2 -81 7 -125 10 -44 3 -107 7 -140 10 -156
12 -249 18 -445 29 -258 15 -347 19 -705 32 -156 6 -1453 13 -1458 8z m593
-74 c17 -28 40 -226 42 -364 1 -74 -10 -280 -17 -317 -2 -12 -7 -47 -11 -78
-3 -31 -8 -65 -10 -76 -2 -10 -6 -37 -9 -60 -6 -42 -32 -193 -40 -234 -2 -13
-7 -49 -10 -80 -4 -31 -8 -65 -10 -77 -19 -123 -28 -653 -12 -769 28 -208 78
-298 197 -358 61 -31 65 -35 78 -82 42 -147 94 -221 252 -355 177 -152 255
-245 298 -356 39 -104 218 -333 401 -514 128 -126 138 -135 255 -225 226 -174
411 -270 846 -440 107 -42 224 -90 259 -106 125 -58 330 -212 741 -553 255
-211 432 -320 685 -419 160 -62 410 -135 525 -152 25 -4 47 -8 50 -10 3 -2 32
-6 65 -10 33 -4 74 -9 90 -12 17 -2 102 -6 190 -7 187 -4 274 12 351 62 50 34
62 35 214 32 111 -2 287 -13 395 -25 22 -2 72 -7 110 -10 39 -3 86 -8 105 -10
19 -3 62 -7 95 -10 33 -3 76 -8 95 -10 19 -2 64 -7 100 -10 36 -3 76 -8 90
-10 14 -2 72 -9 130 -15 58 -6 123 -13 145 -15 22 -3 85 -9 140 -15 55 -6 116
-13 135 -15 19 -2 62 -7 95 -10 33 -4 71 -8 85 -10 14 -2 60 -7 102 -10 43 -3
86 -8 95 -9 10 -2 52 -7 93 -10 41 -4 91 -9 110 -11 19 -3 64 -7 100 -10 62
-5 121 -10 220 -20 41 -4 132 -12 235 -20 22 -2 92 -7 155 -10 63 -4 131 -9
150 -10 60 -6 410 -18 525 -18 114 0 335 10 370 17 11 2 45 6 75 10 30 4 60 7
65 8 35 5 419 151 600 229 11 4 63 25 115 45 52 20 122 46 155 59 33 13 164
62 290 110 207 78 347 129 775 287 74 27 149 54 165 61 17 6 32 12 35 12 7 0
160 54 185 65 33 15 275 97 336 114 51 15 75 15 159 0 14 -2 41 -6 60 -9 19
-3 46 -7 60 -10 14 -3 39 -7 55 -10 17 -3 44 -7 60 -10 17 -3 59 -6 95 -6 l65
0 72 -102 c39 -56 77 -114 84 -129 7 -16 16 -28 21 -28 4 0 8 -5 8 -11 0 -6
13 -29 28 -52 16 -23 68 -112 116 -197 49 -85 96 -166 104 -180 9 -14 17 -27
17 -30 0 -3 10 -21 22 -40 19 -31 50 -87 146 -260 17 -30 41 -72 54 -92 13
-21 23 -40 23 -43 0 -7 131 -213 168 -265 65 -90 127 -144 194 -168 35 -13 72
-27 83 -32 11 -5 43 -18 70 -30 28 -12 57 -23 65 -25 65 -14 573 -259 775
-372 186 -105 490 -298 560 -355 5 -4 46 -36 90 -69 134 -102 144 -110 269
-220 297 -262 511 -503 714 -805 262 -390 459 -850 548 -1279 15 -76 34 -175
39 -205 3 -19 7 -46 10 -60 2 -14 7 -50 10 -80 4 -30 8 -67 11 -82 23 -144 23
-700 0 -888 -3 -19 -8 -57 -11 -85 -8 -70 -13 -106 -29 -205 -14 -86 -55 -285
-77 -370 -11 -47 -22 -89 -23 -95 -33 -144 -172 -541 -253 -725 -80 -179 -231
-473 -298 -581 -5 -9 -19 -32 -29 -50 -24 -44 -177 -270 -193 -287 -7 -7 -13
-17 -13 -21 0 -4 -8 -16 -17 -27 -10 -10 -36 -43 -58 -71 -21 -29 -42 -53 -45
-53 -16 2 -343 420 -512 655 -175 245 -478 704 -478 726 0 5 -4 9 -10 9 -5 0
-10 4 -10 8 0 4 -46 84 -101 177 -93 156 -425 730 -442 765 -4 8 -13 24 -20
35 -7 11 -27 47 -46 80 -244 426 -443 745 -630 1005 -65 90 -205 275 -221 290
-3 3 -46 52 -95 110 -245 285 -574 577 -885 784 -118 79 -524 326 -536 326 -3
0 -28 15 -57 33 -29 18 -77 46 -107 61 -30 16 -60 32 -66 37 -6 5 -40 24 -75
42 -35 19 -98 52 -139 74 -123 66 -526 267 -650 323 -63 29 -137 62 -165 75
-261 118 -682 283 -955 375 -102 34 -194 66 -205 70 -27 12 -421 129 -485 144
-8 2 -53 14 -100 26 -47 12 -93 24 -102 26 -10 2 -26 6 -35 8 -89 22 -201 49
-213 51 -105 22 -423 85 -450 89 -97 16 -373 57 -416 61 -27 3 -58 7 -69 9
-11 2 -54 7 -95 11 -41 4 -85 8 -97 10 -12 2 -60 6 -105 10 -46 3 -101 8 -123
10 -247 25 -1133 25 -1287 0 -13 -2 -61 -6 -108 -10 -81 -5 -126 -10 -215 -20
-22 -3 -62 -7 -90 -10 -27 -3 -61 -8 -75 -10 -14 -2 -47 -7 -75 -11 -55 -7
-308 -50 -340 -57 -260 -62 -895 -262 -1040 -327 -11 -5 -76 -31 -145 -58
-601 -239 -1151 -540 -1725 -946 -84 -60 -416 -316 -435 -336 -3 -3 -45 -39
-95 -80 -98 -81 -101 -83 -260 -226 -274 -247 -676 -652 -956 -964 -56 -63
-105 -117 -109 -120 -3 -3 -55 -61 -115 -130 -61 -69 -114 -130 -120 -136 -28
-31 -79 -90 -165 -189 -52 -61 -97 -112 -100 -115 -4 -4 -59 -68 -206 -240
-35 -41 -252 -290 -313 -359 -31 -35 -67 -77 -81 -94 -14 -17 -34 -40 -45 -51
-11 -12 -38 -42 -60 -66 -22 -25 -42 -44 -45 -43 -3 2 -5 25 -6 51 -2 83 -15
295 -19 327 -2 17 -7 68 -10 113 -3 46 -8 98 -10 115 -2 18 -6 59 -9 92 -4 33
-8 76 -11 95 -2 19 -7 58 -10 85 -7 55 -7 61 -30 220 -9 61 -18 117 -20 125
-2 8 -6 33 -10 55 -12 83 -30 184 -46 260 -6 28 -13 64 -16 80 -18 114 -116
512 -168 685 -14 47 -27 93 -30 102 -6 28 -121 368 -148 438 -71 187 -120 306
-168 408 -16 35 -29 65 -29 68 0 7 -174 353 -212 423 -311 564 -718 1081
-1158 1471 -141 125 -146 129 -281 232 -615 470 -1278 771 -2084 944 -30 6
-234 43 -279 50 -21 3 -48 7 -60 10 -11 2 -46 6 -76 9 -30 3 -66 8 -80 10 -14
2 -54 7 -90 10 -36 3 -76 8 -90 10 -153 27 -947 27 -1203 0 -23 -2 -72 -7
-109 -10 -37 -3 -75 -7 -85 -9 -10 -2 -49 -7 -88 -10 -38 -4 -81 -9 -95 -11
-25 -4 -48 -7 -145 -21 -27 -3 -59 -8 -70 -10 -11 -2 -40 -7 -65 -10 -25 -3
-61 -10 -80 -15 -20 -5 -54 -11 -75 -13 -47 -6 -56 -7 -240 -46 -115 -24 -242
-53 -335 -75 -114 -27 -256 -64 -390 -103 -150 -43 -165 -50 -168 -71 -2 -13
2 -27 8 -31 7 -4 51 3 99 17 338 95 766 198 946 228 17 3 64 12 105 20 41 8
91 17 110 19 19 3 46 8 60 10 14 2 79 12 145 21 66 9 131 18 145 20 14 2 54 6
90 10 36 4 76 8 90 10 14 2 60 7 103 10 73 7 77 6 70 -12 -32 -77 -85 -116
-173 -127 -114 -14 -139 -18 -195 -32 -125 -31 -210 -72 -269 -131 -84 -85
-162 -271 -209 -503 -24 -114 -35 -192 -52 -340 -3 -25 -8 -61 -10 -80 -16
-125 -16 -210 0 -266 24 -86 54 -131 161 -246 113 -121 126 -142 120 -202 -6
-51 -24 -126 -35 -141 -4 -5 -14 -26 -21 -45 -37 -94 -160 -258 -400 -530
-259 -295 -359 -428 -442 -585 -38 -73 -97 -215 -104 -250 -2 -11 -9 -42 -16
-70 -16 -66 -16 -277 0 -340 7 -27 14 -59 17 -70 7 -38 44 -135 70 -187 111
-220 341 -401 680 -532 200 -78 492 -161 775 -221 8 -2 26 -6 40 -9 110 -25
292 -64 330 -71 81 -15 322 -79 415 -110 200 -67 273 -112 418 -258 83 -84
107 -123 138 -222 24 -80 84 -162 180 -245 41 -36 76 -67 79 -70 3 -3 39 -31
80 -62 95 -72 194 -117 300 -134 14 -3 31 -7 38 -9 7 -3 74 -7 150 -11 84 -4
166 -14 212 -26 41 -10 86 -21 100 -24 14 -2 31 -7 38 -9 17 -6 113 -15 197
-19 106 -4 204 8 398 49 47 10 198 54 482 140 171 51 342 103 380 114 39 11
117 34 175 51 58 17 112 33 120 35 8 2 101 31 205 64 444 140 905 313 1463
548 150 63 275 113 277 111 2 -2 7 -19 10 -38 3 -19 8 -42 10 -50 2 -8 7 -35
10 -60 3 -25 8 -56 10 -70 2 -14 7 -45 10 -70 3 -25 8 -56 10 -70 15 -104 22
-164 30 -240 3 -30 8 -71 10 -90 2 -19 7 -69 10 -110 3 -41 8 -93 10 -115 2
-22 7 -85 10 -140 4 -55 8 -125 10 -155 2 -30 5 -92 6 -138 l2 -84 -45 -46
c-25 -26 -65 -69 -89 -96 -43 -49 -103 -114 -264 -285 -171 -183 -627 -632
-779 -766 -206 -183 -302 -266 -342 -297 -16 -12 -31 -25 -34 -28 -11 -13
-221 -182 -326 -262 -236 -181 -479 -352 -724 -510 -30 -19 -95 -61 -143 -92
-48 -31 -90 -56 -93 -56 -3 0 -18 -8 -32 -19 -27 -18 -252 -151 -257 -151 -2
0 -34 -17 -72 -39 -465 -262 -1074 -538 -1658 -752 -178 -65 -209 -73 -280
-75 -119 -4 -276 -13 -310 -19 -280 -47 -441 -114 -585 -242 -70 -62 -153
-188 -177 -268 -37 -120 -47 -277 -28 -410 17 -120 95 -325 143 -378 15 -17
15 -20 1 -30 -61 -45 -154 -147 -216 -237 -58 -85 -144 -284 -168 -390 -2 -8
-8 -35 -14 -60 -17 -75 -24 -158 -25 -289 -1 -117 -2 -124 -21 -126 -111 -11
-162 -17 -175 -20 -8 -2 -51 -7 -95 -10 -44 -4 -91 -8 -105 -11 -14 -2 -65 -6
-115 -9 -49 -4 -103 -8 -120 -10 -94 -12 -392 -20 -765 -20 -432 0 -591 5
-885 30 -33 3 -89 8 -125 11 -68 5 -317 31 -372 39 -18 2 -69 9 -113 15 -44 6
-96 13 -115 16 -19 3 -55 7 -80 10 -25 3 -52 7 -60 9 -8 2 -37 7 -65 11 -27 3
-59 8 -70 10 -11 2 -60 11 -110 20 -49 8 -99 17 -110 19 -116 20 -500 100
-525 109 -8 3 -26 7 -40 10 -23 4 -184 42 -220 52 -8 2 -40 10 -70 18 -48 13
-151 40 -245 66 -253 70 -585 181 -965 323 -125 47 -339 137 -555 235 -90 41
-509 251 -600 302 -706 393 -1350 903 -1741 1380 -16 19 -33 40 -39 46 -5 6
-21 26 -35 44 -14 19 -35 45 -46 59 -48 58 -172 241 -239 350 -180 298 -336
683 -390 966 -14 73 -35 202 -40 247 -14 124 -23 145 -57 127 -18 -10 -19 -18
-14 -82 4 -40 9 -85 11 -102 3 -16 7 -41 9 -55 13 -84 30 -165 48 -235 11 -44
21 -87 23 -95 9 -43 63 -199 105 -305 147 -373 391 -759 689 -1095 78 -88 338
-350 404 -409 190 -165 292 -249 422 -344 50 -37 95 -70 101 -75 21 -18 352
-242 357 -242 3 0 32 -17 64 -39 59 -39 255 -154 393 -230 80 -45 476 -241
575 -286 33 -15 134 -59 225 -97 91 -38 174 -73 185 -78 11 -5 45 -19 75 -30
30 -11 64 -25 75 -30 39 -18 382 -139 520 -183 144 -47 166 -54 345 -106 58
-17 119 -35 135 -40 157 -51 864 -213 1075 -246 19 -3 62 -10 95 -16 33 -6 74
-13 90 -15 17 -3 53 -9 80 -14 28 -5 72 -12 99 -15 27 -3 52 -8 55 -9 3 -2 35
-6 71 -10 36 -3 74 -8 85 -10 11 -2 47 -7 80 -10 33 -4 71 -9 85 -11 36 -5
139 -16 185 -20 22 -2 71 -7 110 -11 583 -56 1303 -64 1880 -20 143 11 280 24
335 31 19 3 53 7 75 9 77 8 160 18 166 22 3 1 10 -17 17 -41 11 -43 69 -175
81 -185 3 -3 19 -24 35 -48 47 -69 182 -188 306 -271 154 -102 335 -193 695
-351 165 -72 318 -140 340 -152 40 -20 143 -113 135 -122 -5 -5 -281 -62 -345
-72 -22 -3 -59 -10 -83 -15 -23 -5 -59 -12 -80 -15 -20 -2 -59 -9 -87 -14 -73
-14 -105 -19 -155 -26 -25 -3 -48 -8 -51 -10 -4 -2 -28 -6 -55 -9 -27 -3 -60
-8 -74 -10 -25 -5 -52 -9 -125 -20 -22 -3 -65 -10 -95 -15 -30 -5 -75 -12
-100 -15 -43 -5 -94 -12 -150 -20 -14 -2 -45 -7 -70 -10 -25 -3 -56 -8 -70
-10 -14 -2 -50 -7 -80 -10 -30 -3 -66 -8 -80 -10 -43 -7 -103 -14 -165 -21
-33 -3 -67 -8 -75 -9 -8 -2 -44 -6 -80 -9 -36 -4 -96 -11 -135 -16 -38 -5 -99
-12 -135 -15 -36 -3 -81 -8 -100 -10 -19 -2 -64 -7 -100 -10 -36 -3 -81 -8
-100 -10 -19 -2 -71 -7 -115 -10 -44 -4 -91 -8 -105 -10 -14 -2 -68 -7 -120
-10 -52 -4 -111 -8 -130 -10 -19 -2 -82 -6 -140 -10 -58 -3 -125 -8 -150 -11
-51 -6 -473 -5 -566 0 -120 8 -318 24 -384 32 -130 15 -211 25 -270 34 -36 5
-83 12 -105 15 -43 6 -140 22 -190 30 -16 3 -57 10 -90 16 -33 5 -147 28 -254
50 -107 21 -198 39 -202 39 -4 0 -37 60 -73 133 -234 476 -621 948 -963 1174
-85 57 -208 117 -293 146 -239 79 -441 67 -672 -40 -132 -62 -139 -59 -251 90
-67 87 -148 148 -236 174 -76 24 -321 23 -448 -1 -10 -2 -38 -7 -63 -10 -25
-3 -56 -8 -70 -11 -14 -3 -38 -8 -55 -10 -16 -3 -37 -8 -45 -10 -8 -2 -32 -6
-54 -10 -21 -3 -41 -7 -45 -9 -3 -3 -27 -7 -51 -11 -52 -8 -511 -123 -518
-130 -7 -7 -298 155 -527 295 -60 36 -117 69 -125 73 -8 4 -42 25 -75 47 -33
22 -73 47 -90 56 -56 31 -583 385 -595 400 -7 7 -18 14 -25 14 -8 0 -15 4 -17
8 -1 4 -43 37 -93 72 -161 115 -621 471 -645 500 -3 3 -17 15 -31 25 -184 141
-631 562 -925 871 -123 129 -372 418 -478 554 -44 58 -86 112 -93 120 -86 107
-295 411 -418 610 -122 197 -179 301 -299 545 -85 173 -161 344 -215 482 l-21
53 73 -61 c180 -152 388 -262 598 -318 315 -84 670 -54 1013 85 147 60 276
128 308 161 30 31 99 172 173 353 110 266 207 425 300 487 84 56 274 100 550
129 102 10 516 12 590 3 132 -17 159 -18 209 -7 96 20 242 110 361 222 33 31
96 84 139 118 108 85 132 109 212 209 102 127 113 141 280 365 203 274 188
254 278 368 201 255 253 281 586 301 187 11 265 26 349 68 98 48 276 258 367
434 73 138 104 229 129 378 19 113 0 277 -42 359 -24 48 -83 144 -103 169 -15
19 -151 178 -198 233 -67 77 -148 203 -174 269 -20 54 -23 76 -22 230 0 237
21 311 169 605 88 175 145 314 160 391 15 73 15 253 0 317 -80 340 -444 954
-1086 1829 -193 263 -218 293 -359 432 -245 243 -577 510 -746 600 l-35 19 58
43 c32 23 60 46 63 49 14 20 319 238 480 345 396 261 756 465 1285 725 283
139 339 166 460 220 28 13 77 35 110 50 33 15 94 42 135 60 41 17 93 40 115
50 115 53 154 70 160 70 3 0 27 9 53 21 70 31 99 44 182 77 41 17 125 50 185
75 131 53 408 161 415 162 3 1 22 9 44 18 21 9 41 17 43 17 3 0 102 36 221 80
120 43 287 104 372 134 169 60 943 316 1105 365 55 17 159 48 230 70 277 84
592 175 802 232 159 43 229 61 278 74 28 7 104 27 170 45 66 18 127 33 135 35
8 2 121 30 250 63 129 32 276 69 325 80 50 12 158 38 240 58 83 19 159 37 170
40 11 2 61 13 110 24 201 45 551 120 635 136 14 3 32 7 40 9 8 2 31 7 50 10
19 3 42 8 50 10 8 2 31 7 50 10 19 3 53 10 75 15 22 5 56 12 75 15 19 3 42 8
50 10 8 2 29 7 45 9 17 3 113 21 215 40 102 19 199 38 215 41 17 3 93 17 170
30 77 14 150 27 162 29 11 3 43 8 70 12 61 8 80 12 101 18 9 3 37 7 62 10 25
3 56 8 70 11 14 3 39 7 55 9 17 3 45 7 63 10 17 3 44 8 60 10 63 10 118 19
132 21 8 1 40 6 70 11 30 4 57 8 60 9 3 1 30 5 60 9 30 5 64 10 74 12 11 2 56
8 100 14 98 13 118 16 176 26 25 4 59 8 75 10 17 1 44 4 60 7 17 3 55 9 85 12
30 4 62 8 70 10 8 1 42 6 75 10 32 4 66 8 75 10 8 1 42 6 75 9 33 4 71 9 85
11 14 2 70 9 125 15 55 6 111 13 125 15 14 2 57 7 95 10 39 4 77 8 85 10 8 2
44 7 80 10 36 3 81 8 100 10 19 2 64 7 100 10 36 3 81 8 100 10 60 7 132 14
200 20 36 3 86 8 113 10 185 19 296 28 462 40 79 6 196 14 270 20 33 3 101 7
150 10 50 3 117 7 150 10 73 5 248 15 370 20 50 2 155 7 235 10 215 10 311 13
685 20 187 4 341 8 342 8 1 1 54 1 118 1 81 -1 120 -5 125 -14z m-7090 -16617
c7 -16 30 -68 52 -118 96 -220 154 -308 231 -349 l35 -19 0 -156 c-1 -178 11
-277 52 -442 48 -194 134 -391 252 -578 59 -94 183 -260 234 -314 14 -16 24
-30 22 -32 -3 -3 -76 26 -183 75 -22 9 -80 35 -130 56 -190 81 -544 264 -553
286 -2 4 -8 8 -13 8 -19 0 -158 109 -227 178 -78 77 -140 175 -173 272 -28 84
-36 331 -13 455 47 259 175 512 330 655 31 27 59 50 63 50 4 0 14 -12 21 -27z
m14879 -624 c147 -79 221 -124 221 -135 0 -4 -31 -40 -69 -80 -219 -230 -365
-471 -396 -654 -8 -50 -9 -152 -1 -195 9 -49 41 -134 89 -235 49 -106 67 -160
45 -143 -29 23 -269 152 -348 187 -36 16 -87 39 -115 52 -178 80 -587 210
-760 240 -16 3 -46 9 -65 14 -35 8 -212 40 -260 46 -33 4 -108 15 -128 19 -10
1 -46 6 -82 9 -36 4 -76 9 -90 11 -21 4 -151 15 -227 19 -12 1 -24 4 -27 7 -3
2 45 27 107 54 62 26 141 62 177 78 36 16 79 35 95 42 17 7 55 24 85 38 166
75 664 291 859 374 336 141 744 300 775 302 10 1 62 -22 115 -50z"/>
<path d="M21309 18986 c-2 -2 -38 -6 -79 -10 -41 -3 -86 -8 -100 -11 -14 -2
-45 -6 -70 -9 -25 -3 -58 -8 -75 -11 -123 -22 -211 -40 -280 -57 -44 -11 -89
-22 -99 -24 -45 -9 -203 -57 -288 -88 -172 -62 -285 -125 -330 -184 -33 -41
-35 -71 -9 -103 38 -47 147 -22 469 105 254 100 517 181 647 200 22 3 74 11
115 17 69 10 393 12 535 4 79 -4 212 -15 250 -20 17 -2 57 -7 90 -11 33 -3 67
-8 77 -9 9 -2 38 -7 65 -10 26 -4 113 -18 193 -32 80 -14 154 -27 165 -29 11
-2 74 -14 140 -28 66 -14 131 -27 145 -30 14 -3 34 -7 45 -10 165 -37 311 -56
333 -42 60 37 -224 133 -708 240 -127 28 -459 91 -530 101 -25 3 -70 10 -100
15 -30 5 -82 12 -115 16 -33 3 -69 8 -80 11 -23 5 -401 13 -406 9z"/>
<path d="M19602 16573 c-14 -27 -7 -36 72 -105 121 -105 127 -109 246 -195 63
-46 120 -88 127 -93 7 -6 15 -10 17 -10 3 0 36 -19 73 -43 233 -149 667 -321
913 -362 19 -3 49 -10 65 -15 49 -14 193 -35 390 -57 86 -9 582 -9 685 0 139
13 185 18 260 28 41 6 91 13 110 15 32 5 322 57 379 68 150 31 452 110 801
211 179 52 351 101 383 110 58 16 72 36 46 62 -16 16 -75 1 -561 -141 -86 -25
-183 -53 -215 -62 -32 -8 -92 -24 -133 -35 -41 -11 -84 -22 -95 -24 -41 -7
-79 -16 -85 -20 -4 -2 -40 -11 -81 -20 -41 -9 -83 -18 -94 -21 -59 -13 -409
-73 -465 -78 -33 -4 -115 -13 -185 -22 -75 -9 -283 -18 -415 -17 -225 0 -412
15 -615 49 -136 22 -420 93 -457 114 -10 6 -22 10 -28 10 -23 0 -270 104 -384
162 -234 119 -523 319 -675 469 -37 36 -67 45 -79 22z"/>
<path d="M18731 8424 c0 -11 3 -14 6 -6 3 7 2 16 -1 19 -3 4 -6 -2 -5 -13z"/>
<path d="M18733 8365 c0 -22 2 -30 4 -17 2 12 2 30 0 40 -3 9 -5 -1 -4 -23z"/>
</g>
</svg>
